<mxfile host="app.diagrams.net" modified="2024-03-24T16:16:39.220Z" agent="Mozilla/5.0 (Windows NT 10.0; Win64; x64; rv:124.0) Gecko/20100101 Firefox/124.0" etag="pkdIjxGzrhM-0qJTQfX6" version="24.0.7" type="github">
  <diagram name="Page-1" id="73JWoC3PJ1hufEelbJKA">
    <mxGraphModel dx="5031" dy="2780" grid="1" gridSize="10" guides="1" tooltips="1" connect="1" arrows="1" fold="1" page="0" pageScale="1" pageWidth="850" pageHeight="1100" math="0" shadow="0">
      <root>
        <mxCell id="0" />
        <mxCell id="1" parent="0" />
        <mxCell id="hAll9fopkxcPj5hgn6QA-2" value="AWS Cloud" style="sketch=0;outlineConnect=0;html=1;whiteSpace=wrap;fontSize=12;fontStyle=0;shape=mxgraph.aws4.group;grIcon=mxgraph.aws4.group_aws_cloud;verticalAlign=top;align=left;spacingLeft=30;dashed=0;strokeColor=#d6b656;fillColor=none;" vertex="1" parent="1">
          <mxGeometry x="-2370" y="2280" width="1200" height="710" as="geometry" />
        </mxCell>
        <mxCell id="hAll9fopkxcPj5hgn6QA-3" value="Region - us-east-1" style="sketch=0;outlineConnect=0;html=1;whiteSpace=wrap;fontSize=12;fontStyle=0;shape=mxgraph.aws4.group;grIcon=mxgraph.aws4.group_region;strokeColor=#6c8ebf;fillColor=none;verticalAlign=top;align=left;spacingLeft=30;dashed=1;" vertex="1" parent="1">
          <mxGeometry x="-2330" y="2320" width="1110" height="640" as="geometry" />
        </mxCell>
        <mxCell id="AQiT-Bu8DEGx5OKQLMhI-1" value="AWS Cloud" style="sketch=0;outlineConnect=0;html=1;whiteSpace=wrap;fontSize=12;fontStyle=0;shape=mxgraph.aws4.group;grIcon=mxgraph.aws4.group_aws_cloud;verticalAlign=top;align=left;spacingLeft=30;dashed=0;strokeColor=#d6b656;fillColor=none;" parent="1" vertex="1">
          <mxGeometry x="-663" y="285" width="1453" height="1140" as="geometry" />
        </mxCell>
        <mxCell id="AQiT-Bu8DEGx5OKQLMhI-7" value="Region - us-east-1" style="sketch=0;outlineConnect=0;html=1;whiteSpace=wrap;fontSize=12;fontStyle=0;shape=mxgraph.aws4.group;grIcon=mxgraph.aws4.group_region;strokeColor=#6c8ebf;fillColor=none;verticalAlign=top;align=left;spacingLeft=30;dashed=1;" parent="1" vertex="1">
          <mxGeometry x="-633" y="325" width="1258" height="1089" as="geometry" />
        </mxCell>
        <mxCell id="AQiT-Bu8DEGx5OKQLMhI-8" value="VPC - 10.0.0.0/16" style="sketch=0;outlineConnect=0;html=1;whiteSpace=wrap;fontSize=12;fontStyle=0;shape=mxgraph.aws4.group;grIcon=mxgraph.aws4.group_vpc;strokeColor=#009900;fillColor=none;verticalAlign=top;align=left;spacingLeft=30;dashed=0;" parent="1" vertex="1">
          <mxGeometry x="-597" y="385" width="1053" height="1017" as="geometry" />
        </mxCell>
        <mxCell id="x_zQF4Y2UBibgw9S-IBZ-27" value="" style="endArrow=classic;startArrow=classic;html=1;rounded=0;" parent="1" source="x_zQF4Y2UBibgw9S-IBZ-1" target="x_zQF4Y2UBibgw9S-IBZ-17" edge="1">
          <mxGeometry width="50" height="50" relative="1" as="geometry">
            <mxPoint x="216" y="885" as="sourcePoint" />
            <mxPoint x="186" y="466" as="targetPoint" />
            <Array as="points">
              <mxPoint x="-14" y="485" />
            </Array>
          </mxGeometry>
        </mxCell>
        <mxCell id="x_zQF4Y2UBibgw9S-IBZ-8" value="Availability zone - us-east-1c" style="sketch=0;outlineConnect=0;gradientColor=none;html=1;whiteSpace=wrap;fontSize=14;fontStyle=0;shape=mxgraph.aws4.group;grIcon=mxgraph.aws4.group_availability_zone;strokeColor=#545B64;fillColor=none;verticalAlign=top;align=left;spacingLeft=30;fontColor=#545B64;dashed=1;" parent="1" vertex="1">
          <mxGeometry x="145" y="675" width="240" height="711" as="geometry" />
        </mxCell>
        <mxCell id="x_zQF4Y2UBibgw9S-IBZ-7" value="&lt;span style=&quot;background-color: rgb(255, 255, 255);&quot;&gt;Availability zone - us-east-1b&lt;/span&gt;" style="sketch=0;outlineConnect=0;gradientColor=none;html=1;whiteSpace=wrap;fontSize=14;fontStyle=0;shape=mxgraph.aws4.group;grIcon=mxgraph.aws4.group_availability_zone;strokeColor=#545B64;fillColor=none;verticalAlign=top;align=left;spacingLeft=30;fontColor=#545B64;dashed=1;" parent="1" vertex="1">
          <mxGeometry x="-126" y="675" width="223" height="711" as="geometry" />
        </mxCell>
        <mxCell id="x_zQF4Y2UBibgw9S-IBZ-1" value="&lt;font style=&quot;font-size: 14px;&quot;&gt;Public subnet &lt;/font&gt;&lt;font style=&quot;font-size: 14px;&quot;&gt;&lt;font color=&quot;#001219&quot;&gt;- us-east-1b | 10.0.1.0/24&lt;/font&gt;&lt;/font&gt;" style="points=[[0,0],[0.25,0],[0.5,0],[0.75,0],[1,0],[1,0.25],[1,0.5],[1,0.75],[1,1],[0.75,1],[0.5,1],[0.25,1],[0,1],[0,0.75],[0,0.5],[0,0.25]];outlineConnect=0;gradientColor=none;html=1;whiteSpace=wrap;fontSize=12;fontStyle=0;container=1;pointerEvents=0;collapsible=0;recursiveResize=0;shape=mxgraph.aws4.group;grIcon=mxgraph.aws4.group_security_group;grStroke=0;strokeColor=#7AA116;fillColor=#F2F6E8;verticalAlign=top;align=left;spacingLeft=30;fontColor=#248814;dashed=0;" parent="1" vertex="1">
          <mxGeometry x="-117" y="747" width="205" height="313" as="geometry" />
        </mxCell>
        <mxCell id="x_zQF4Y2UBibgw9S-IBZ-13" value="Amazon EC2&lt;br&gt;1vCPU - 1Gb&lt;br&gt;t3.micro" style="sketch=0;points=[[0,0,0],[0.25,0,0],[0.5,0,0],[0.75,0,0],[1,0,0],[0,1,0],[0.25,1,0],[0.5,1,0],[0.75,1,0],[1,1,0],[0,0.25,0],[0,0.5,0],[0,0.75,0],[1,0.25,0],[1,0.5,0],[1,0.75,0]];outlineConnect=0;fontColor=#232F3E;fillColor=#ED7100;strokeColor=#ffffff;dashed=0;verticalLabelPosition=bottom;verticalAlign=top;align=center;html=1;fontSize=12;fontStyle=0;aspect=fixed;shape=mxgraph.aws4.resourceIcon;resIcon=mxgraph.aws4.ec2;" parent="x_zQF4Y2UBibgw9S-IBZ-1" vertex="1">
          <mxGeometry x="62.5" y="58" width="78" height="78" as="geometry" />
        </mxCell>
        <mxCell id="x_zQF4Y2UBibgw9S-IBZ-3" value="Private subnet &lt;font style=&quot;font-size: 14px;&quot;&gt;&lt;font color=&quot;#001219&quot;&gt;- us-east-1b | 10.0.1.0/24&lt;/font&gt;&lt;/font&gt;" style="points=[[0,0],[0.25,0],[0.5,0],[0.75,0],[1,0],[1,0.25],[1,0.5],[1,0.75],[1,1],[0.75,1],[0.5,1],[0.25,1],[0,1],[0,0.75],[0,0.5],[0,0.25]];outlineConnect=0;gradientColor=none;html=1;whiteSpace=wrap;fontSize=14;fontStyle=0;container=1;pointerEvents=0;collapsible=0;recursiveResize=0;shape=mxgraph.aws4.group;grIcon=mxgraph.aws4.group_security_group;grStroke=0;strokeColor=#00A4A6;fillColor=#E6F6F7;verticalAlign=top;align=left;spacingLeft=30;fontColor=#147EBA;dashed=0;" parent="1" vertex="1">
          <mxGeometry x="-117" y="1083" width="205" height="281" as="geometry" />
        </mxCell>
        <mxCell id="x_zQF4Y2UBibgw9S-IBZ-15" value="Amazon EC2&lt;br&gt;2vCPU - 4Gb&lt;br&gt;t3.medium" style="sketch=0;points=[[0,0,0],[0.25,0,0],[0.5,0,0],[0.75,0,0],[1,0,0],[0,1,0],[0.25,1,0],[0.5,1,0],[0.75,1,0],[1,1,0],[0,0.25,0],[0,0.5,0],[0,0.75,0],[1,0.25,0],[1,0.5,0],[1,0.75,0]];outlineConnect=0;fontColor=#232F3E;fillColor=#ED7100;strokeColor=#ffffff;dashed=0;verticalLabelPosition=bottom;verticalAlign=top;align=center;html=1;fontSize=12;fontStyle=0;aspect=fixed;shape=mxgraph.aws4.resourceIcon;resIcon=mxgraph.aws4.ec2;" parent="x_zQF4Y2UBibgw9S-IBZ-3" vertex="1">
          <mxGeometry x="60" y="115" width="78" height="78" as="geometry" />
        </mxCell>
        <mxCell id="x_zQF4Y2UBibgw9S-IBZ-4" value="Private subnet &lt;font style=&quot;font-size: 14px;&quot;&gt;&lt;font color=&quot;#001219&quot;&gt;- us-east-1a | 10.0.0.0/24&lt;/font&gt;&lt;/font&gt;" style="points=[[0,0],[0.25,0],[0.5,0],[0.75,0],[1,0],[1,0.25],[1,0.5],[1,0.75],[1,1],[0.75,1],[0.5,1],[0.25,1],[0,1],[0,0.75],[0,0.5],[0,0.25]];outlineConnect=0;gradientColor=none;html=1;whiteSpace=wrap;fontSize=14;fontStyle=0;container=1;pointerEvents=0;collapsible=0;recursiveResize=0;shape=mxgraph.aws4.group;grIcon=mxgraph.aws4.group_security_group;grStroke=0;strokeColor=#00A4A6;fillColor=#E6F6F7;verticalAlign=top;align=left;spacingLeft=30;fontColor=#147EBA;dashed=0;" parent="1" vertex="1">
          <mxGeometry x="-464" y="1083" width="205" height="284" as="geometry" />
        </mxCell>
        <mxCell id="x_zQF4Y2UBibgw9S-IBZ-14" value="Amazon EC2&lt;br&gt;2vCPU - 4Gb&lt;br&gt;t3.medium" style="sketch=0;points=[[0,0,0],[0.25,0,0],[0.5,0,0],[0.75,0,0],[1,0,0],[0,1,0],[0.25,1,0],[0.5,1,0],[0.75,1,0],[1,1,0],[0,0.25,0],[0,0.5,0],[0,0.75,0],[1,0.25,0],[1,0.5,0],[1,0.75,0]];outlineConnect=0;fontColor=#232F3E;fillColor=#ED7100;strokeColor=#ffffff;dashed=0;verticalLabelPosition=bottom;verticalAlign=top;align=center;html=1;fontSize=12;fontStyle=0;aspect=fixed;shape=mxgraph.aws4.resourceIcon;resIcon=mxgraph.aws4.ec2;" parent="x_zQF4Y2UBibgw9S-IBZ-4" vertex="1">
          <mxGeometry x="62.5" y="117" width="78" height="78" as="geometry" />
        </mxCell>
        <mxCell id="x_zQF4Y2UBibgw9S-IBZ-33" style="edgeStyle=orthogonalEdgeStyle;rounded=0;orthogonalLoop=1;jettySize=auto;html=1;entryX=0;entryY=0.5;entryDx=0;entryDy=0;entryPerimeter=0;exitX=1;exitY=0.5;exitDx=0;exitDy=0;exitPerimeter=0;" parent="1" source="wvfkLvsLn3xEdgtcsnYN-20" target="x_zQF4Y2UBibgw9S-IBZ-13" edge="1">
          <mxGeometry relative="1" as="geometry">
            <Array as="points">
              <mxPoint x="-134" y="559" />
              <mxPoint x="-134" y="844" />
            </Array>
            <mxPoint x="-160" y="560" as="sourcePoint" />
          </mxGeometry>
        </mxCell>
        <mxCell id="x_zQF4Y2UBibgw9S-IBZ-47" style="edgeStyle=orthogonalEdgeStyle;rounded=0;orthogonalLoop=1;jettySize=auto;html=1;exitX=1;exitY=0.5;exitDx=0;exitDy=0;" parent="1" source="x_zQF4Y2UBibgw9S-IBZ-38" target="AQiT-Bu8DEGx5OKQLMhI-1" edge="1">
          <mxGeometry relative="1" as="geometry">
            <Array as="points">
              <mxPoint x="-603" y="-105" />
            </Array>
          </mxGeometry>
        </mxCell>
        <mxCell id="UQrgSo6uh9nHudZJqQ-1-15" value="6" style="edgeLabel;html=1;align=center;verticalAlign=middle;resizable=0;points=[];fontSize=22;" parent="x_zQF4Y2UBibgw9S-IBZ-47" vertex="1" connectable="0">
          <mxGeometry x="-0.2634" y="-1" relative="1" as="geometry">
            <mxPoint x="1" as="offset" />
          </mxGeometry>
        </mxCell>
        <mxCell id="x_zQF4Y2UBibgw9S-IBZ-52" style="edgeStyle=orthogonalEdgeStyle;rounded=0;orthogonalLoop=1;jettySize=auto;html=1;" parent="1" source="x_zQF4Y2UBibgw9S-IBZ-38" target="x_zQF4Y2UBibgw9S-IBZ-39" edge="1">
          <mxGeometry relative="1" as="geometry" />
        </mxCell>
        <mxCell id="UQrgSo6uh9nHudZJqQ-1-9" value="1" style="edgeLabel;html=1;align=center;verticalAlign=middle;resizable=0;points=[];fontSize=22;" parent="x_zQF4Y2UBibgw9S-IBZ-52" vertex="1" connectable="0">
          <mxGeometry x="-0.3861" y="-6" relative="1" as="geometry">
            <mxPoint as="offset" />
          </mxGeometry>
        </mxCell>
        <mxCell id="x_zQF4Y2UBibgw9S-IBZ-63" style="edgeStyle=orthogonalEdgeStyle;rounded=0;orthogonalLoop=1;jettySize=auto;html=1;" parent="1" source="x_zQF4Y2UBibgw9S-IBZ-38" target="x_zQF4Y2UBibgw9S-IBZ-53" edge="1">
          <mxGeometry relative="1" as="geometry">
            <Array as="points">
              <mxPoint x="-1445" y="115" />
              <mxPoint x="-1881" y="115" />
            </Array>
          </mxGeometry>
        </mxCell>
        <mxCell id="UQrgSo6uh9nHudZJqQ-1-11" value="2" style="edgeLabel;html=1;align=center;verticalAlign=middle;resizable=0;points=[];fontSize=22;" parent="x_zQF4Y2UBibgw9S-IBZ-63" vertex="1" connectable="0">
          <mxGeometry x="-0.1059" y="-1" relative="1" as="geometry">
            <mxPoint as="offset" />
          </mxGeometry>
        </mxCell>
        <mxCell id="x_zQF4Y2UBibgw9S-IBZ-70" style="edgeStyle=orthogonalEdgeStyle;rounded=0;orthogonalLoop=1;jettySize=auto;html=1;" parent="1" edge="1">
          <mxGeometry relative="1" as="geometry">
            <mxPoint x="-1373.0000000000005" y="-50" as="sourcePoint" />
            <mxPoint x="-1373.0000000000005" y="279" as="targetPoint" />
            <Array as="points">
              <mxPoint x="-1373" y="48" />
              <mxPoint x="-1373" y="48" />
            </Array>
          </mxGeometry>
        </mxCell>
        <mxCell id="UQrgSo6uh9nHudZJqQ-1-13" value="3" style="edgeLabel;html=1;align=center;verticalAlign=middle;resizable=0;points=[];fontSize=22;" parent="x_zQF4Y2UBibgw9S-IBZ-70" vertex="1" connectable="0">
          <mxGeometry x="0.0555" y="-3" relative="1" as="geometry">
            <mxPoint y="1" as="offset" />
          </mxGeometry>
        </mxCell>
        <mxCell id="UQrgSo6uh9nHudZJqQ-1-8" style="edgeStyle=orthogonalEdgeStyle;rounded=0;orthogonalLoop=1;jettySize=auto;html=1;" parent="1" source="x_zQF4Y2UBibgw9S-IBZ-38" target="M3Oy_83pEKWLoSnn9fVF-1" edge="1">
          <mxGeometry relative="1" as="geometry">
            <Array as="points">
              <mxPoint x="-1207" y="115" />
              <mxPoint x="-965" y="115" />
            </Array>
          </mxGeometry>
        </mxCell>
        <mxCell id="UQrgSo6uh9nHudZJqQ-1-14" value="&lt;font style=&quot;font-size: 22px;&quot;&gt;4 e 5&lt;br&gt;&lt;/font&gt;" style="edgeLabel;html=1;align=center;verticalAlign=middle;resizable=0;points=[];" parent="UQrgSo6uh9nHudZJqQ-1-8" vertex="1" connectable="0">
          <mxGeometry x="-0.039" y="1" relative="1" as="geometry">
            <mxPoint as="offset" />
          </mxGeometry>
        </mxCell>
        <mxCell id="x_zQF4Y2UBibgw9S-IBZ-38" value="" style="shape=image;verticalLabelPosition=bottom;labelBackgroundColor=default;verticalAlign=top;aspect=fixed;imageAspect=0;image=https://encrypted-tbn0.gstatic.com/images?q=tbn:ANd9GcSxgx0Sv7yMsI8ooA6omK7flfGawxjrceUCog&amp;usqp=CAU;" parent="1" vertex="1">
          <mxGeometry x="-1489" y="-160" width="459" height="110" as="geometry" />
        </mxCell>
        <mxCell id="x_zQF4Y2UBibgw9S-IBZ-39" value="AWS Cloud" style="sketch=0;outlineConnect=0;html=1;whiteSpace=wrap;fontSize=12;fontStyle=0;shape=mxgraph.aws4.group;grIcon=mxgraph.aws4.group_aws_cloud;verticalAlign=top;align=left;spacingLeft=30;dashed=0;strokeColor=#d6b656;fillColor=none;" parent="1" vertex="1">
          <mxGeometry x="-2427" y="279" width="250" height="350" as="geometry" />
        </mxCell>
        <mxCell id="x_zQF4Y2UBibgw9S-IBZ-40" value="Region - us-east-1" style="sketch=0;outlineConnect=0;html=1;whiteSpace=wrap;fontSize=12;fontStyle=0;shape=mxgraph.aws4.group;grIcon=mxgraph.aws4.group_region;strokeColor=#6c8ebf;fillColor=none;verticalAlign=top;align=left;spacingLeft=30;dashed=1;" parent="1" vertex="1">
          <mxGeometry x="-2397" y="315" width="190" height="296" as="geometry" />
        </mxCell>
        <mxCell id="x_zQF4Y2UBibgw9S-IBZ-43" value="AWS Cloud" style="sketch=0;outlineConnect=0;html=1;whiteSpace=wrap;fontSize=12;fontStyle=0;shape=mxgraph.aws4.group;grIcon=mxgraph.aws4.group_aws_cloud;verticalAlign=top;align=left;spacingLeft=30;dashed=0;strokeColor=#d6b656;fillColor=none;" parent="1" vertex="1">
          <mxGeometry x="-339" y="4577" width="460" height="1140" as="geometry" />
        </mxCell>
        <mxCell id="x_zQF4Y2UBibgw9S-IBZ-44" value="Region - us-east-1" style="sketch=0;outlineConnect=0;html=1;whiteSpace=wrap;fontSize=12;fontStyle=0;shape=mxgraph.aws4.group;grIcon=mxgraph.aws4.group_region;strokeColor=#6c8ebf;fillColor=none;verticalAlign=top;align=left;spacingLeft=30;dashed=1;" parent="1" vertex="1">
          <mxGeometry x="-309" y="4637" width="410" height="1040" as="geometry" />
        </mxCell>
        <mxCell id="x_zQF4Y2UBibgw9S-IBZ-45" value="VPC - 10.0.0.0/16" style="sketch=0;outlineConnect=0;html=1;whiteSpace=wrap;fontSize=12;fontStyle=0;shape=mxgraph.aws4.group;grIcon=mxgraph.aws4.group_vpc;strokeColor=#009900;fillColor=none;verticalAlign=top;align=left;spacingLeft=30;dashed=0;" parent="1" vertex="1">
          <mxGeometry x="-269" y="4697" width="330" height="930" as="geometry" />
        </mxCell>
        <mxCell id="x_zQF4Y2UBibgw9S-IBZ-46" value="IAM User" style="outlineConnect=0;dashed=0;verticalLabelPosition=bottom;verticalAlign=top;align=center;html=1;shape=mxgraph.aws3.iam;fillColor=#759C3E;gradientColor=none;" parent="1" vertex="1">
          <mxGeometry x="-2302" y="363" width="42" height="81" as="geometry" />
        </mxCell>
        <mxCell id="x_zQF4Y2UBibgw9S-IBZ-48" value="IAM Policy" style="sketch=0;outlineConnect=0;fontColor=#232F3E;gradientColor=none;fillColor=#DD344C;strokeColor=none;dashed=0;verticalLabelPosition=bottom;verticalAlign=top;align=center;html=1;fontSize=12;fontStyle=0;aspect=fixed;pointerEvents=1;shape=mxgraph.aws4.identity_access_management_iam_roles_anywhere;" parent="1" vertex="1">
          <mxGeometry x="-2316" y="496" width="78" height="78" as="geometry" />
        </mxCell>
        <mxCell id="x_zQF4Y2UBibgw9S-IBZ-50" value="" style="endArrow=classic;startArrow=classic;html=1;rounded=0;entryX=0.26;entryY=0.5;entryDx=0;entryDy=0;entryPerimeter=0;" parent="1" source="x_zQF4Y2UBibgw9S-IBZ-48" target="x_zQF4Y2UBibgw9S-IBZ-46" edge="1">
          <mxGeometry width="50" height="50" relative="1" as="geometry">
            <mxPoint x="-2287" y="535" as="sourcePoint" />
            <mxPoint x="-2237" y="485" as="targetPoint" />
            <Array as="points">
              <mxPoint x="-2357" y="535" />
              <mxPoint x="-2357" y="404" />
            </Array>
          </mxGeometry>
        </mxCell>
        <mxCell id="x_zQF4Y2UBibgw9S-IBZ-51" value="Assign Policy&lt;br&gt;to User" style="edgeLabel;html=1;align=center;verticalAlign=middle;resizable=0;points=[];" parent="x_zQF4Y2UBibgw9S-IBZ-50" vertex="1" connectable="0">
          <mxGeometry x="-0.1312" relative="1" as="geometry">
            <mxPoint x="1" as="offset" />
          </mxGeometry>
        </mxCell>
        <mxCell id="x_zQF4Y2UBibgw9S-IBZ-53" value="AWS Cloud" style="sketch=0;outlineConnect=0;html=1;whiteSpace=wrap;fontSize=12;fontStyle=0;shape=mxgraph.aws4.group;grIcon=mxgraph.aws4.group_aws_cloud;verticalAlign=top;align=left;spacingLeft=30;dashed=0;strokeColor=#d6b656;fillColor=none;" parent="1" vertex="1">
          <mxGeometry x="-1987" y="279" width="213" height="226" as="geometry" />
        </mxCell>
        <mxCell id="x_zQF4Y2UBibgw9S-IBZ-54" value="Region - us-east-1" style="sketch=0;outlineConnect=0;html=1;whiteSpace=wrap;fontSize=12;fontStyle=0;shape=mxgraph.aws4.group;grIcon=mxgraph.aws4.group_region;strokeColor=#6c8ebf;fillColor=none;verticalAlign=top;align=left;spacingLeft=30;dashed=1;" parent="1" vertex="1">
          <mxGeometry x="-1957" y="319" width="157" height="162" as="geometry" />
        </mxCell>
        <mxCell id="x_zQF4Y2UBibgw9S-IBZ-59" value="Bucket S3&lt;br&gt;Stores tfstate files" style="outlineConnect=0;dashed=0;verticalLabelPosition=bottom;verticalAlign=top;align=center;html=1;shape=mxgraph.aws3.bucket_with_objects;fillColor=#E05243;gradientColor=none;" parent="1" vertex="1">
          <mxGeometry x="-1910" y="361" width="60" height="61.5" as="geometry" />
        </mxCell>
        <mxCell id="x_zQF4Y2UBibgw9S-IBZ-64" value="" style="shape=flexArrow;endArrow=classic;html=1;rounded=0;" parent="1" edge="1">
          <mxGeometry width="50" height="50" relative="1" as="geometry">
            <mxPoint x="-2166" y="450" as="sourcePoint" />
            <mxPoint x="-2001" y="450" as="targetPoint" />
          </mxGeometry>
        </mxCell>
        <mxCell id="x_zQF4Y2UBibgw9S-IBZ-66" value="AWS Cloud" style="sketch=0;outlineConnect=0;html=1;whiteSpace=wrap;fontSize=12;fontStyle=0;shape=mxgraph.aws4.group;grIcon=mxgraph.aws4.group_aws_cloud;verticalAlign=top;align=left;spacingLeft=30;dashed=0;strokeColor=#d6b656;fillColor=none;" parent="1" vertex="1">
          <mxGeometry x="-1597" y="279" width="337" height="351" as="geometry" />
        </mxCell>
        <mxCell id="x_zQF4Y2UBibgw9S-IBZ-69" value="Route 53&lt;br&gt;DNS (Domain Name)" style="sketch=0;points=[[0,0,0],[0.25,0,0],[0.5,0,0],[0.75,0,0],[1,0,0],[0,1,0],[0.25,1,0],[0.5,1,0],[0.75,1,0],[1,1,0],[0,0.25,0],[0,0.5,0],[0,0.75,0],[1,0.25,0],[1,0.5,0],[1,0.75,0]];outlineConnect=0;fontColor=#232F3E;fillColor=#8C4FFF;strokeColor=#ffffff;dashed=0;verticalLabelPosition=bottom;verticalAlign=top;align=center;html=1;fontSize=12;fontStyle=0;aspect=fixed;shape=mxgraph.aws4.resourceIcon;resIcon=mxgraph.aws4.route_53;" parent="1" vertex="1">
          <mxGeometry x="-1560" y="317" width="81" height="81" as="geometry" />
        </mxCell>
        <mxCell id="x_zQF4Y2UBibgw9S-IBZ-71" value="Hosted Zone" style="sketch=0;outlineConnect=0;fontColor=#232F3E;gradientColor=none;fillColor=#8C4FFF;strokeColor=none;dashed=0;verticalLabelPosition=bottom;verticalAlign=top;align=center;html=1;fontSize=12;fontStyle=0;aspect=fixed;pointerEvents=1;shape=mxgraph.aws4.hosted_zone;" parent="1" vertex="1">
          <mxGeometry x="-1392" y="321" width="78" height="77" as="geometry" />
        </mxCell>
        <mxCell id="x_zQF4Y2UBibgw9S-IBZ-72" value="" style="endArrow=classic;startArrow=classic;html=1;rounded=0;exitX=1;exitY=0.5;exitDx=0;exitDy=0;exitPerimeter=0;" parent="1" source="x_zQF4Y2UBibgw9S-IBZ-69" target="x_zQF4Y2UBibgw9S-IBZ-71" edge="1">
          <mxGeometry width="50" height="50" relative="1" as="geometry">
            <mxPoint x="-1389" y="395" as="sourcePoint" />
            <mxPoint x="-1339" y="345" as="targetPoint" />
          </mxGeometry>
        </mxCell>
        <mxCell id="x_zQF4Y2UBibgw9S-IBZ-74" value="" style="shape=flexArrow;endArrow=classic;html=1;rounded=0;" parent="1" edge="1">
          <mxGeometry width="50" height="50" relative="1" as="geometry">
            <mxPoint x="-1756" y="449" as="sourcePoint" />
            <mxPoint x="-1607" y="449" as="targetPoint" />
          </mxGeometry>
        </mxCell>
        <mxCell id="x_zQF4Y2UBibgw9S-IBZ-78" style="edgeStyle=orthogonalEdgeStyle;rounded=0;orthogonalLoop=1;jettySize=auto;html=1;exitX=0.5;exitY=1;exitDx=0;exitDy=0;exitPerimeter=0;" parent="1" source="x_zQF4Y2UBibgw9S-IBZ-76" target="x_zQF4Y2UBibgw9S-IBZ-73" edge="1">
          <mxGeometry relative="1" as="geometry">
            <mxPoint x="-195.12" y="-8" as="sourcePoint" />
            <mxPoint x="-194.12" y="356.00088818036875" as="targetPoint" />
          </mxGeometry>
        </mxCell>
        <mxCell id="x_zQF4Y2UBibgw9S-IBZ-80" value="Domain &quot;A&quot; Record pointing to ELB" style="edgeLabel;html=1;align=center;verticalAlign=middle;resizable=0;points=[];" parent="x_zQF4Y2UBibgw9S-IBZ-78" vertex="1" connectable="0">
          <mxGeometry x="-0.0177" y="2" relative="1" as="geometry">
            <mxPoint x="-2" y="17" as="offset" />
          </mxGeometry>
        </mxCell>
        <mxCell id="x_zQF4Y2UBibgw9S-IBZ-82" value="AWS Cloud" style="sketch=0;outlineConnect=0;html=1;whiteSpace=wrap;fontSize=12;fontStyle=0;shape=mxgraph.aws4.group;grIcon=mxgraph.aws4.group_aws_cloud;verticalAlign=top;align=left;spacingLeft=30;dashed=0;strokeColor=#d6b656;fillColor=none;" parent="1" vertex="1">
          <mxGeometry x="-2355" y="4520" width="1800" height="1140" as="geometry" />
        </mxCell>
        <mxCell id="x_zQF4Y2UBibgw9S-IBZ-83" value="Region - us-east-1" style="sketch=0;outlineConnect=0;html=1;whiteSpace=wrap;fontSize=12;fontStyle=0;shape=mxgraph.aws4.group;grIcon=mxgraph.aws4.group_region;strokeColor=#6c8ebf;fillColor=none;verticalAlign=top;align=left;spacingLeft=30;dashed=1;" parent="1" vertex="1">
          <mxGeometry x="-2325" y="4580" width="1720" height="1040" as="geometry" />
        </mxCell>
        <mxCell id="x_zQF4Y2UBibgw9S-IBZ-84" value="VPC - 10.0.0.0/16" style="sketch=0;outlineConnect=0;html=1;whiteSpace=wrap;fontSize=12;fontStyle=0;shape=mxgraph.aws4.group;grIcon=mxgraph.aws4.group_vpc;strokeColor=#009900;fillColor=none;verticalAlign=top;align=left;spacingLeft=30;dashed=0;" parent="1" vertex="1">
          <mxGeometry x="-2285" y="4640" width="1620" height="930" as="geometry" />
        </mxCell>
        <mxCell id="x_zQF4Y2UBibgw9S-IBZ-85" value="Availability zone - us-east-1e" style="sketch=0;outlineConnect=0;gradientColor=none;html=1;whiteSpace=wrap;fontSize=14;fontStyle=0;shape=mxgraph.aws4.group;grIcon=mxgraph.aws4.group_availability_zone;strokeColor=#545B64;fillColor=none;verticalAlign=top;align=left;spacingLeft=30;fontColor=#545B64;dashed=1;" parent="1" vertex="1">
          <mxGeometry x="-958" y="4910" width="240" height="620" as="geometry" />
        </mxCell>
        <mxCell id="x_zQF4Y2UBibgw9S-IBZ-86" value="Availability zone - us-east-1d" style="sketch=0;outlineConnect=0;gradientColor=none;html=1;whiteSpace=wrap;fontSize=14;fontStyle=0;shape=mxgraph.aws4.group;grIcon=mxgraph.aws4.group_availability_zone;strokeColor=#545B64;fillColor=none;verticalAlign=top;align=left;spacingLeft=30;fontColor=#545B64;dashed=1;" parent="1" vertex="1">
          <mxGeometry x="-1251" y="4910" width="240" height="620" as="geometry" />
        </mxCell>
        <mxCell id="x_zQF4Y2UBibgw9S-IBZ-87" value="Availability zone - us-east-1c" style="sketch=0;outlineConnect=0;gradientColor=none;html=1;whiteSpace=wrap;fontSize=14;fontStyle=0;shape=mxgraph.aws4.group;grIcon=mxgraph.aws4.group_availability_zone;strokeColor=#545B64;fillColor=none;verticalAlign=top;align=left;spacingLeft=30;fontColor=#545B64;dashed=1;" parent="1" vertex="1">
          <mxGeometry x="-1547" y="4910" width="240" height="620" as="geometry" />
        </mxCell>
        <mxCell id="x_zQF4Y2UBibgw9S-IBZ-88" value="Availability zone - us-east-1b" style="sketch=0;outlineConnect=0;gradientColor=none;html=1;whiteSpace=wrap;fontSize=14;fontStyle=0;shape=mxgraph.aws4.group;grIcon=mxgraph.aws4.group_availability_zone;strokeColor=#545B64;fillColor=none;verticalAlign=top;align=left;spacingLeft=30;fontColor=#545B64;dashed=1;" parent="1" vertex="1">
          <mxGeometry x="-1818" y="4910" width="223" height="620" as="geometry" />
        </mxCell>
        <mxCell id="x_zQF4Y2UBibgw9S-IBZ-89" value="&lt;font style=&quot;font-size: 14px;&quot;&gt;Public subnet &lt;/font&gt;&lt;font style=&quot;font-size: 14px;&quot;&gt;&lt;font color=&quot;#001219&quot;&gt;- us-east-1b | 10.0.2.0/24&lt;/font&gt;&lt;/font&gt;" style="points=[[0,0],[0.25,0],[0.5,0],[0.75,0],[1,0],[1,0.25],[1,0.5],[1,0.75],[1,1],[0.75,1],[0.5,1],[0.25,1],[0,1],[0,0.75],[0,0.5],[0,0.25]];outlineConnect=0;gradientColor=none;html=1;whiteSpace=wrap;fontSize=12;fontStyle=0;container=1;pointerEvents=0;collapsible=0;recursiveResize=0;shape=mxgraph.aws4.group;grIcon=mxgraph.aws4.group_security_group;grStroke=0;strokeColor=#7AA116;fillColor=#F2F6E8;verticalAlign=top;align=left;spacingLeft=30;fontColor=#248814;dashed=0;" parent="1" vertex="1">
          <mxGeometry x="-1809" y="4982" width="205" height="313" as="geometry" />
        </mxCell>
        <mxCell id="x_zQF4Y2UBibgw9S-IBZ-90" value="" style="sketch=0;points=[[0,0,0],[0.25,0,0],[0.5,0,0],[0.75,0,0],[1,0,0],[0,1,0],[0.25,1,0],[0.5,1,0],[0.75,1,0],[1,1,0],[0,0.25,0],[0,0.5,0],[0,0.75,0],[1,0.25,0],[1,0.5,0],[1,0.75,0]];outlineConnect=0;fontColor=#232F3E;fillColor=#ED7100;strokeColor=#ffffff;dashed=0;verticalLabelPosition=bottom;verticalAlign=top;align=center;html=1;fontSize=12;fontStyle=0;aspect=fixed;shape=mxgraph.aws4.resourceIcon;resIcon=mxgraph.aws4.ec2;" parent="x_zQF4Y2UBibgw9S-IBZ-89" vertex="1">
          <mxGeometry x="63.5" y="181" width="78" height="78" as="geometry" />
        </mxCell>
        <mxCell id="x_zQF4Y2UBibgw9S-IBZ-91" value="Private subnet &lt;font style=&quot;font-size: 14px;&quot;&gt;&lt;font color=&quot;#001219&quot;&gt;- us-east-1d | 10.0.3.0/24&lt;/font&gt;&lt;/font&gt;" style="points=[[0,0],[0.25,0],[0.5,0],[0.75,0],[1,0],[1,0.25],[1,0.5],[1,0.75],[1,1],[0.75,1],[0.5,1],[0.25,1],[0,1],[0,0.75],[0,0.5],[0,0.25]];outlineConnect=0;gradientColor=none;html=1;whiteSpace=wrap;fontSize=14;fontStyle=0;container=1;pointerEvents=0;collapsible=0;recursiveResize=0;shape=mxgraph.aws4.group;grIcon=mxgraph.aws4.group_security_group;grStroke=0;strokeColor=#00A4A6;fillColor=#E6F6F7;verticalAlign=top;align=left;spacingLeft=30;fontColor=#147EBA;dashed=0;" parent="1" vertex="1">
          <mxGeometry x="-1241" y="4982" width="205" height="440" as="geometry" />
        </mxCell>
        <mxCell id="x_zQF4Y2UBibgw9S-IBZ-92" value="" style="sketch=0;points=[[0,0,0],[0.25,0,0],[0.5,0,0],[0.75,0,0],[1,0,0],[0,1,0],[0.25,1,0],[0.5,1,0],[0.75,1,0],[1,1,0],[0,0.25,0],[0,0.5,0],[0,0.75,0],[1,0.25,0],[1,0.5,0],[1,0.75,0]];outlineConnect=0;fontColor=#232F3E;fillColor=#ED7100;strokeColor=#ffffff;dashed=0;verticalLabelPosition=bottom;verticalAlign=top;align=center;html=1;fontSize=12;fontStyle=0;aspect=fixed;shape=mxgraph.aws4.resourceIcon;resIcon=mxgraph.aws4.ec2;" parent="x_zQF4Y2UBibgw9S-IBZ-91" vertex="1">
          <mxGeometry x="10.5" y="163" width="78" height="78" as="geometry" />
        </mxCell>
        <mxCell id="x_zQF4Y2UBibgw9S-IBZ-93" value="Private subnet &lt;font style=&quot;font-size: 14px;&quot;&gt;&lt;font color=&quot;#001219&quot;&gt;- us-east-1c | 10.0.2.0/24&lt;/font&gt;&lt;/font&gt;" style="points=[[0,0],[0.25,0],[0.5,0],[0.75,0],[1,0],[1,0.25],[1,0.5],[1,0.75],[1,1],[0.75,1],[0.5,1],[0.25,1],[0,1],[0,0.75],[0,0.5],[0,0.25]];outlineConnect=0;gradientColor=none;html=1;whiteSpace=wrap;fontSize=14;fontStyle=0;container=1;pointerEvents=0;collapsible=0;recursiveResize=0;shape=mxgraph.aws4.group;grIcon=mxgraph.aws4.group_security_group;grStroke=0;strokeColor=#00A4A6;fillColor=#E6F6F7;verticalAlign=top;align=left;spacingLeft=30;fontColor=#147EBA;dashed=0;" parent="1" vertex="1">
          <mxGeometry x="-1529.5" y="4982" width="205" height="440" as="geometry" />
        </mxCell>
        <mxCell id="x_zQF4Y2UBibgw9S-IBZ-94" value="" style="sketch=0;points=[[0,0,0],[0.25,0,0],[0.5,0,0],[0.75,0,0],[1,0,0],[0,1,0],[0.25,1,0],[0.5,1,0],[0.75,1,0],[1,1,0],[0,0.25,0],[0,0.5,0],[0,0.75,0],[1,0.25,0],[1,0.5,0],[1,0.75,0]];outlineConnect=0;fontColor=#232F3E;fillColor=#ED7100;strokeColor=#ffffff;dashed=0;verticalLabelPosition=bottom;verticalAlign=top;align=center;html=1;fontSize=12;fontStyle=0;aspect=fixed;shape=mxgraph.aws4.resourceIcon;resIcon=mxgraph.aws4.ec2;" parent="x_zQF4Y2UBibgw9S-IBZ-93" vertex="1">
          <mxGeometry x="63.5" y="165" width="78" height="78" as="geometry" />
        </mxCell>
        <mxCell id="x_zQF4Y2UBibgw9S-IBZ-95" value="Private subnet &lt;font style=&quot;font-size: 14px;&quot;&gt;&lt;font color=&quot;#001219&quot;&gt;- us-east-1e | 10.0.4.0/24&lt;/font&gt;&lt;/font&gt;" style="points=[[0,0],[0.25,0],[0.5,0],[0.75,0],[1,0],[1,0.25],[1,0.5],[1,0.75],[1,1],[0.75,1],[0.5,1],[0.25,1],[0,1],[0,0.75],[0,0.5],[0,0.25]];outlineConnect=0;gradientColor=none;html=1;whiteSpace=wrap;fontSize=14;fontStyle=0;container=1;pointerEvents=0;collapsible=0;recursiveResize=0;shape=mxgraph.aws4.group;grIcon=mxgraph.aws4.group_security_group;grStroke=0;strokeColor=#00A4A6;fillColor=#E6F6F7;verticalAlign=top;align=left;spacingLeft=30;fontColor=#147EBA;dashed=0;" parent="1" vertex="1">
          <mxGeometry x="-940.5" y="4982" width="205" height="440" as="geometry" />
        </mxCell>
        <mxCell id="x_zQF4Y2UBibgw9S-IBZ-96" value="" style="sketch=0;points=[[0,0,0],[0.25,0,0],[0.5,0,0],[0.75,0,0],[1,0,0],[0,1,0],[0.25,1,0],[0.5,1,0],[0.75,1,0],[1,1,0],[0,0.25,0],[0,0.5,0],[0,0.75,0],[1,0.25,0],[1,0.5,0],[1,0.75,0]];outlineConnect=0;fontColor=#232F3E;fillColor=#ED7100;strokeColor=#ffffff;dashed=0;verticalLabelPosition=bottom;verticalAlign=top;align=center;html=1;fontSize=12;fontStyle=0;aspect=fixed;shape=mxgraph.aws4.resourceIcon;resIcon=mxgraph.aws4.ec2;" parent="x_zQF4Y2UBibgw9S-IBZ-95" vertex="1">
          <mxGeometry x="63.5" y="164" width="78" height="78" as="geometry" />
        </mxCell>
        <mxCell id="x_zQF4Y2UBibgw9S-IBZ-97" value="Availability zone - us-east-1a" style="sketch=0;outlineConnect=0;html=1;whiteSpace=wrap;fontSize=14;fontStyle=0;shape=mxgraph.aws4.group;grIcon=mxgraph.aws4.group_availability_zone;strokeColor=#666666;fillColor=none;verticalAlign=top;align=left;spacingLeft=30;fontColor=#333333;dashed=1;" parent="1" vertex="1">
          <mxGeometry x="-2173" y="4910" width="257" height="620" as="geometry" />
        </mxCell>
        <mxCell id="x_zQF4Y2UBibgw9S-IBZ-98" value="&lt;font style=&quot;font-size: 14px;&quot;&gt;Public subnet &lt;font color=&quot;#001219&quot;&gt;- us-east-1a | 10.0.1.0/24&lt;br&gt;&lt;/font&gt;&lt;/font&gt;" style="points=[[0,0],[0.25,0],[0.5,0],[0.75,0],[1,0],[1,0.25],[1,0.5],[1,0.75],[1,1],[0.75,1],[0.5,1],[0.25,1],[0,1],[0,0.75],[0,0.5],[0,0.25]];outlineConnect=0;gradientColor=none;html=1;whiteSpace=wrap;fontSize=12;fontStyle=0;container=1;pointerEvents=0;collapsible=0;recursiveResize=0;shape=mxgraph.aws4.group;grIcon=mxgraph.aws4.group_security_group;grStroke=0;strokeColor=#7AA116;fillColor=#F2F6E8;verticalAlign=top;align=left;spacingLeft=30;fontColor=#248814;dashed=0;" parent="1" vertex="1">
          <mxGeometry x="-2156" y="4981" width="200" height="316" as="geometry" />
        </mxCell>
        <mxCell id="x_zQF4Y2UBibgw9S-IBZ-99" value="Amazon EC2 &lt;br&gt;1vCPU - 1Gb Ram" style="sketch=0;points=[[0,0,0],[0.25,0,0],[0.5,0,0],[0.75,0,0],[1,0,0],[0,1,0],[0.25,1,0],[0.5,1,0],[0.75,1,0],[1,1,0],[0,0.25,0],[0,0.5,0],[0,0.75,0],[1,0.25,0],[1,0.5,0],[1,0.75,0]];outlineConnect=0;fontColor=#232F3E;fillColor=#ED7100;strokeColor=#ffffff;dashed=0;verticalLabelPosition=bottom;verticalAlign=top;align=center;html=1;fontSize=12;fontStyle=0;aspect=fixed;shape=mxgraph.aws4.resourceIcon;resIcon=mxgraph.aws4.ec2;" parent="x_zQF4Y2UBibgw9S-IBZ-98" vertex="1">
          <mxGeometry x="61" y="169" width="78" height="78" as="geometry" />
        </mxCell>
        <mxCell id="x_zQF4Y2UBibgw9S-IBZ-100" value="Internet Gateway (IGW)" style="sketch=0;outlineConnect=0;fontColor=#232F3E;gradientColor=none;fillColor=#8C4FFF;strokeColor=none;dashed=0;verticalLabelPosition=bottom;verticalAlign=top;align=center;html=1;fontSize=12;fontStyle=0;aspect=fixed;pointerEvents=1;shape=mxgraph.aws4.internet_gateway;" parent="1" vertex="1">
          <mxGeometry x="-1545" y="4600" width="78" height="78" as="geometry" />
        </mxCell>
        <mxCell id="x_zQF4Y2UBibgw9S-IBZ-101" value="" style="sketch=0;outlineConnect=0;fontColor=#232F3E;gradientColor=none;fillColor=#8C4FFF;strokeColor=none;dashed=0;verticalLabelPosition=bottom;verticalAlign=top;align=center;html=1;fontSize=12;fontStyle=0;aspect=fixed;pointerEvents=1;shape=mxgraph.aws4.nat_gateway;" parent="1" vertex="1">
          <mxGeometry x="-2092" y="5042" width="78" height="78" as="geometry" />
        </mxCell>
        <mxCell id="x_zQF4Y2UBibgw9S-IBZ-102" value="" style="endArrow=classic;startArrow=classic;html=1;rounded=0;" parent="1" edge="1">
          <mxGeometry width="50" height="50" relative="1" as="geometry">
            <mxPoint x="-2091" y="5081" as="sourcePoint" />
            <mxPoint x="-1506" y="4702" as="targetPoint" />
            <Array as="points">
              <mxPoint x="-2225" y="5081" />
              <mxPoint x="-2223" y="4720" />
              <mxPoint x="-1506" y="4721" />
            </Array>
          </mxGeometry>
        </mxCell>
        <mxCell id="x_zQF4Y2UBibgw9S-IBZ-103" value="" style="endArrow=classic;html=1;rounded=0;" parent="1" target="x_zQF4Y2UBibgw9S-IBZ-94" edge="1">
          <mxGeometry width="50" height="50" relative="1" as="geometry">
            <mxPoint x="-2013" y="5080.215722120658" as="sourcePoint" />
            <mxPoint x="-1605" y="5060" as="targetPoint" />
            <Array as="points">
              <mxPoint x="-1427" y="5070" />
            </Array>
          </mxGeometry>
        </mxCell>
        <mxCell id="x_zQF4Y2UBibgw9S-IBZ-104" value="" style="endArrow=classic;html=1;rounded=0;entryX=0.5;entryY=0;entryDx=0;entryDy=0;entryPerimeter=0;" parent="1" target="x_zQF4Y2UBibgw9S-IBZ-92" edge="1">
          <mxGeometry width="50" height="50" relative="1" as="geometry">
            <mxPoint x="-2013" y="5080.476829268293" as="sourcePoint" />
            <mxPoint x="-815" y="4930" as="targetPoint" />
            <Array as="points">
              <mxPoint x="-1191" y="5070" />
            </Array>
          </mxGeometry>
        </mxCell>
        <mxCell id="x_zQF4Y2UBibgw9S-IBZ-105" value="" style="endArrow=classic;html=1;rounded=0;entryX=0.5;entryY=0;entryDx=0;entryDy=0;entryPerimeter=0;" parent="1" target="x_zQF4Y2UBibgw9S-IBZ-96" edge="1">
          <mxGeometry width="50" height="50" relative="1" as="geometry">
            <mxPoint x="-2013" y="5080.612466124661" as="sourcePoint" />
            <mxPoint x="-1495" y="5070" as="targetPoint" />
            <Array as="points">
              <mxPoint x="-838" y="5070" />
            </Array>
          </mxGeometry>
        </mxCell>
        <mxCell id="x_zQF4Y2UBibgw9S-IBZ-106" value="Load Balancer" style="outlineConnect=0;dashed=0;verticalLabelPosition=bottom;verticalAlign=top;align=center;html=1;shape=mxgraph.aws3.application_load_balancer;fillColor=#F58536;gradientColor=none;" parent="1" vertex="1">
          <mxGeometry x="-1926" y="4760" width="69" height="72" as="geometry" />
        </mxCell>
        <mxCell id="x_zQF4Y2UBibgw9S-IBZ-107" value="" style="endArrow=classic;startArrow=classic;html=1;rounded=0;exitX=0.5;exitY=0;exitDx=0;exitDy=0;exitPerimeter=0;" parent="1" source="x_zQF4Y2UBibgw9S-IBZ-106" edge="1">
          <mxGeometry width="50" height="50" relative="1" as="geometry">
            <mxPoint x="-1476" y="5120" as="sourcePoint" />
            <mxPoint x="-1506" y="4701" as="targetPoint" />
            <Array as="points">
              <mxPoint x="-1891" y="4740" />
              <mxPoint x="-1506" y="4740" />
            </Array>
          </mxGeometry>
        </mxCell>
        <mxCell id="x_zQF4Y2UBibgw9S-IBZ-108" value="" style="endArrow=classic;startArrow=classic;html=1;rounded=0;entryX=1;entryY=0.5;entryDx=0;entryDy=0;entryPerimeter=0;" parent="1" source="x_zQF4Y2UBibgw9S-IBZ-106" target="x_zQF4Y2UBibgw9S-IBZ-99" edge="1">
          <mxGeometry width="50" height="50" relative="1" as="geometry">
            <mxPoint x="-1476" y="5120" as="sourcePoint" />
            <mxPoint x="-1426" y="5070" as="targetPoint" />
            <Array as="points">
              <mxPoint x="-1946" y="4796" />
              <mxPoint x="-1946" y="5189" />
            </Array>
          </mxGeometry>
        </mxCell>
        <mxCell id="x_zQF4Y2UBibgw9S-IBZ-109" style="edgeStyle=orthogonalEdgeStyle;rounded=0;orthogonalLoop=1;jettySize=auto;html=1;exitX=1;exitY=0.5;exitDx=0;exitDy=0;exitPerimeter=0;entryX=0;entryY=0.5;entryDx=0;entryDy=0;entryPerimeter=0;" parent="1" source="x_zQF4Y2UBibgw9S-IBZ-106" target="x_zQF4Y2UBibgw9S-IBZ-90" edge="1">
          <mxGeometry relative="1" as="geometry">
            <Array as="points">
              <mxPoint x="-1836" y="4796" />
              <mxPoint x="-1836" y="5202" />
            </Array>
          </mxGeometry>
        </mxCell>
        <mxCell id="x_zQF4Y2UBibgw9S-IBZ-110" value="Security Group" style="fontStyle=0;verticalAlign=top;align=center;spacingTop=-2;fillColor=none;rounded=0;whiteSpace=wrap;html=1;strokeColor=#FF0000;strokeWidth=2;dashed=1;container=1;collapsible=0;expand=0;recursiveResize=0;fontSize=14;" parent="1" vertex="1">
          <mxGeometry x="-2146" y="5130" width="530" height="154" as="geometry" />
        </mxCell>
        <mxCell id="x_zQF4Y2UBibgw9S-IBZ-111" value="Security Group" style="fontStyle=0;verticalAlign=top;align=center;spacingTop=-2;fillColor=none;rounded=0;whiteSpace=wrap;html=1;strokeColor=#FF0000;strokeWidth=2;dashed=1;container=1;collapsible=0;expand=0;recursiveResize=0;fontSize=14;" parent="1" vertex="1">
          <mxGeometry x="-1516" y="5100" width="770" height="260" as="geometry" />
        </mxCell>
        <mxCell id="x_zQF4Y2UBibgw9S-IBZ-5" value="Private subnet &lt;font style=&quot;font-size: 14px;&quot;&gt;&lt;font color=&quot;#001219&quot;&gt;- us-east-1c | 10.0.2.0/24&lt;/font&gt;&lt;/font&gt;" style="points=[[0,0],[0.25,0],[0.5,0],[0.75,0],[1,0],[1,0.25],[1,0.5],[1,0.75],[1,1],[0.75,1],[0.5,1],[0.25,1],[0,1],[0,0.75],[0,0.5],[0,0.25]];outlineConnect=0;gradientColor=none;html=1;whiteSpace=wrap;fontSize=14;fontStyle=0;container=1;pointerEvents=0;collapsible=0;recursiveResize=0;shape=mxgraph.aws4.group;grIcon=mxgraph.aws4.group_security_group;grStroke=0;strokeColor=#00A4A6;fillColor=#E6F6F7;verticalAlign=top;align=left;spacingLeft=30;fontColor=#147EBA;dashed=0;" parent="1" vertex="1">
          <mxGeometry x="162.5" y="745" width="205" height="619" as="geometry" />
        </mxCell>
        <mxCell id="x_zQF4Y2UBibgw9S-IBZ-16" value="Amazon EC2&lt;br&gt;2vCPU - 8Gb&lt;br&gt;t3.large" style="sketch=0;points=[[0,0,0],[0.25,0,0],[0.5,0,0],[0.75,0,0],[1,0,0],[0,1,0],[0.25,1,0],[0.5,1,0],[0.75,1,0],[1,1,0],[0,0.25,0],[0,0.5,0],[0,0.75,0],[1,0.25,0],[1,0.5,0],[1,0.75,0]];outlineConnect=0;fontColor=#232F3E;fillColor=#ED7100;strokeColor=#ffffff;dashed=0;verticalLabelPosition=bottom;verticalAlign=top;align=center;html=1;fontSize=12;fontStyle=0;aspect=fixed;shape=mxgraph.aws4.resourceIcon;resIcon=mxgraph.aws4.ec2;" parent="x_zQF4Y2UBibgw9S-IBZ-5" vertex="1">
          <mxGeometry x="63.5" y="451" width="78" height="78" as="geometry" />
        </mxCell>
        <mxCell id="x_zQF4Y2UBibgw9S-IBZ-115" value="Amazon RDS&lt;br&gt;PostgreSQL&lt;br&gt;db.t3.micro" style="sketch=0;points=[[0,0,0],[0.25,0,0],[0.5,0,0],[0.75,0,0],[1,0,0],[0,1,0],[0.25,1,0],[0.5,1,0],[0.75,1,0],[1,1,0],[0,0.25,0],[0,0.5,0],[0,0.75,0],[1,0.25,0],[1,0.5,0],[1,0.75,0]];outlineConnect=0;fontColor=#232F3E;fillColor=#C925D1;strokeColor=#ffffff;dashed=0;verticalLabelPosition=bottom;verticalAlign=top;align=center;html=1;fontSize=12;fontStyle=0;aspect=fixed;shape=mxgraph.aws4.resourceIcon;resIcon=mxgraph.aws4.rds;" parent="x_zQF4Y2UBibgw9S-IBZ-5" vertex="1">
          <mxGeometry x="63.5" y="159" width="78" height="78" as="geometry" />
        </mxCell>
        <mxCell id="x_zQF4Y2UBibgw9S-IBZ-37" value="Security Group" style="fontStyle=0;verticalAlign=top;align=center;spacingTop=-2;fillColor=none;rounded=0;whiteSpace=wrap;html=1;strokeColor=#FF0000;strokeWidth=2;dashed=1;container=1;collapsible=0;expand=0;recursiveResize=0;fontSize=14;" parent="x_zQF4Y2UBibgw9S-IBZ-5" vertex="1">
          <mxGeometry x="-596.5" y="410" width="780" height="180" as="geometry" />
        </mxCell>
        <mxCell id="yeIbg6Vf4OMtqrhq6Q38-11" style="edgeStyle=orthogonalEdgeStyle;rounded=0;orthogonalLoop=1;jettySize=auto;html=1;exitX=1;exitY=0.5;exitDx=0;exitDy=0;exitPerimeter=0;" parent="x_zQF4Y2UBibgw9S-IBZ-37" source="wvfkLvsLn3xEdgtcsnYN-23" edge="1">
          <mxGeometry relative="1" as="geometry">
            <mxPoint x="380" y="100" as="targetPoint" />
            <Array as="points">
              <mxPoint x="364" y="119" />
              <mxPoint x="364" y="100" />
            </Array>
            <mxPoint x="268.8150968120922" y="100" as="sourcePoint" />
          </mxGeometry>
        </mxCell>
        <mxCell id="wvfkLvsLn3xEdgtcsnYN-23" value="Auto-Scaling" style="sketch=0;points=[[0,0,0],[0.25,0,0],[0.5,0,0],[0.75,0,0],[1,0,0],[0,1,0],[0.25,1,0],[0.5,1,0],[0.75,1,0],[1,1,0],[0,0.25,0],[0,0.5,0],[0,0.75,0],[1,0.25,0],[1,0.5,0],[1,0.75,0]];outlineConnect=0;fontColor=#232F3E;fillColor=#ED7100;strokeColor=#ffffff;dashed=0;verticalLabelPosition=bottom;verticalAlign=top;align=center;html=1;fontSize=12;fontStyle=0;aspect=fixed;shape=mxgraph.aws4.resourceIcon;resIcon=mxgraph.aws4.auto_scaling2;" parent="x_zQF4Y2UBibgw9S-IBZ-37" vertex="1">
          <mxGeometry x="217.5" y="95" width="55" height="55" as="geometry" />
        </mxCell>
        <mxCell id="UfEThE5E38KL7fPlGbRl-1" value="Security Group" style="fontStyle=0;verticalAlign=top;align=center;spacingTop=-2;fillColor=none;rounded=0;whiteSpace=wrap;html=1;strokeColor=#FF0000;strokeWidth=2;dashed=1;container=1;collapsible=0;expand=0;recursiveResize=0;fontSize=14;" parent="x_zQF4Y2UBibgw9S-IBZ-5" vertex="1">
          <mxGeometry x="22.5" y="50" width="160" height="330" as="geometry" />
        </mxCell>
        <mxCell id="yeIbg6Vf4OMtqrhq6Q38-8" value="" style="endArrow=classic;html=1;rounded=0;startArrow=classic;startFill=1;" parent="1" source="AQiT-Bu8DEGx5OKQLMhI-5" target="x_zQF4Y2UBibgw9S-IBZ-17" edge="1">
          <mxGeometry width="50" height="50" relative="1" as="geometry">
            <mxPoint x="-184" y="695" as="sourcePoint" />
            <mxPoint x="186" y="465" as="targetPoint" />
            <Array as="points">
              <mxPoint x="-364" y="485" />
              <mxPoint x="-14" y="485" />
            </Array>
          </mxGeometry>
        </mxCell>
        <mxCell id="x_zQF4Y2UBibgw9S-IBZ-6" value="&lt;span style=&quot;background-color: rgb(255, 255, 255);&quot;&gt;Availability zone - us-east-1a&lt;/span&gt;" style="sketch=0;outlineConnect=0;html=1;whiteSpace=wrap;fontSize=14;fontStyle=0;shape=mxgraph.aws4.group;grIcon=mxgraph.aws4.group_availability_zone;strokeColor=#666666;fillColor=none;verticalAlign=top;align=left;spacingLeft=30;fontColor=#333333;dashed=1;" parent="1" vertex="1">
          <mxGeometry x="-481" y="675" width="257" height="711" as="geometry" />
        </mxCell>
        <mxCell id="x_zQF4Y2UBibgw9S-IBZ-76" value="&lt;span style=&quot;background-color: rgb(255, 255, 255);&quot;&gt;Route 53&lt;br&gt;DNS (Domain Name)&lt;/span&gt;" style="sketch=0;points=[[0,0,0],[0.25,0,0],[0.5,0,0],[0.75,0,0],[1,0,0],[0,1,0],[0.25,1,0],[0.5,1,0],[0.75,1,0],[1,1,0],[0,0.25,0],[0,0.5,0],[0,0.75,0],[1,0.25,0],[1,0.5,0],[1,0.75,0]];outlineConnect=0;fontColor=#232F3E;fillColor=#8C4FFF;strokeColor=#ffffff;dashed=0;verticalLabelPosition=bottom;verticalAlign=top;align=center;html=1;fontSize=12;fontStyle=0;aspect=fixed;shape=mxgraph.aws4.resourceIcon;resIcon=mxgraph.aws4.route_53;" parent="1" vertex="1">
          <mxGeometry x="-235" y="-133" width="81" height="81" as="geometry" />
        </mxCell>
        <mxCell id="M3Oy_83pEKWLoSnn9fVF-1" value="AWS Cloud" style="sketch=0;outlineConnect=0;html=1;whiteSpace=wrap;fontSize=12;fontStyle=0;shape=mxgraph.aws4.group;grIcon=mxgraph.aws4.group_aws_cloud;verticalAlign=top;align=left;spacingLeft=30;dashed=0;strokeColor=#d6b656;fillColor=none;" parent="1" vertex="1">
          <mxGeometry x="-1087" y="279" width="190" height="191" as="geometry" />
        </mxCell>
        <mxCell id="M3Oy_83pEKWLoSnn9fVF-2" value="&lt;div&gt;AWS Elastic Container&amp;nbsp;&lt;/div&gt;&lt;div&gt;Registry (ECR)&lt;br&gt;&lt;/div&gt;" style="sketch=0;points=[[0,0,0],[0.25,0,0],[0.5,0,0],[0.75,0,0],[1,0,0],[0,1,0],[0.25,1,0],[0.5,1,0],[0.75,1,0],[1,1,0],[0,0.25,0],[0,0.5,0],[0,0.75,0],[1,0.25,0],[1,0.5,0],[1,0.75,0]];outlineConnect=0;fontColor=#232F3E;fillColor=#ED7100;strokeColor=#ffffff;dashed=0;verticalLabelPosition=bottom;verticalAlign=top;align=center;html=1;fontSize=12;fontStyle=0;aspect=fixed;shape=mxgraph.aws4.resourceIcon;resIcon=mxgraph.aws4.ecr;" parent="1" vertex="1">
          <mxGeometry x="668" y="385" width="78" height="78" as="geometry" />
        </mxCell>
        <mxCell id="i2LwXkiWrMADQK8uH2UW-1" value="" style="shape=flexArrow;endArrow=classic;html=1;rounded=0;" parent="1" edge="1">
          <mxGeometry width="50" height="50" relative="1" as="geometry">
            <mxPoint x="-1249" y="444" as="sourcePoint" />
            <mxPoint x="-1100" y="444" as="targetPoint" />
          </mxGeometry>
        </mxCell>
        <mxCell id="AQiT-Bu8DEGx5OKQLMhI-5" value="&lt;font style=&quot;font-size: 14px;&quot;&gt;Public subnet &lt;font color=&quot;#001219&quot;&gt;- us-east-1a | 10.0.0.0/24&lt;br&gt;&lt;/font&gt;&lt;/font&gt;" style="points=[[0,0],[0.25,0],[0.5,0],[0.75,0],[1,0],[1,0.25],[1,0.5],[1,0.75],[1,1],[0.75,1],[0.5,1],[0.25,1],[0,1],[0,0.75],[0,0.5],[0,0.25]];outlineConnect=0;gradientColor=none;html=1;whiteSpace=wrap;fontSize=12;fontStyle=0;container=1;pointerEvents=0;collapsible=0;recursiveResize=0;shape=mxgraph.aws4.group;grIcon=mxgraph.aws4.group_security_group;grStroke=0;strokeColor=#7AA116;fillColor=#F2F6E8;verticalAlign=top;align=left;spacingLeft=30;fontColor=#248814;dashed=0;" parent="1" vertex="1">
          <mxGeometry x="-464" y="746" width="200" height="316" as="geometry" />
        </mxCell>
        <mxCell id="x_zQF4Y2UBibgw9S-IBZ-18" value="Nat Gateway" style="sketch=0;outlineConnect=0;fontColor=#232F3E;gradientColor=none;fillColor=#8C4FFF;strokeColor=none;dashed=0;verticalLabelPosition=bottom;verticalAlign=top;align=center;html=1;fontSize=12;fontStyle=0;aspect=fixed;pointerEvents=1;shape=mxgraph.aws4.nat_gateway;" parent="AQiT-Bu8DEGx5OKQLMhI-5" vertex="1">
          <mxGeometry x="61" y="206" width="78" height="78" as="geometry" />
        </mxCell>
        <mxCell id="x_zQF4Y2UBibgw9S-IBZ-12" value="Amazon EC2 &lt;br&gt;1vCPU - 1Gb Ram&lt;br&gt;t3.micro" style="sketch=0;points=[[0,0,0],[0.25,0,0],[0.5,0,0],[0.75,0,0],[1,0,0],[0,1,0],[0.25,1,0],[0.5,1,0],[0.75,1,0],[1,1,0],[0,0.25,0],[0,0.5,0],[0,0.75,0],[1,0.25,0],[1,0.5,0],[1,0.75,0]];outlineConnect=0;fontColor=#232F3E;fillColor=#ED7100;strokeColor=#ffffff;dashed=0;verticalLabelPosition=bottom;verticalAlign=top;align=center;html=1;fontSize=12;fontStyle=0;aspect=fixed;shape=mxgraph.aws4.resourceIcon;resIcon=mxgraph.aws4.ec2;labelBorderColor=none;" parent="AQiT-Bu8DEGx5OKQLMhI-5" vertex="1">
          <mxGeometry x="59" y="59" width="78" height="78" as="geometry" />
        </mxCell>
        <mxCell id="x_zQF4Y2UBibgw9S-IBZ-36" value="Security Group" style="fontStyle=0;verticalAlign=top;align=center;spacingTop=-2;fillColor=none;rounded=0;whiteSpace=wrap;html=1;strokeColor=#FF0000;strokeWidth=2;dashed=1;container=1;collapsible=0;expand=0;recursiveResize=0;fontSize=14;" parent="1" vertex="1">
          <mxGeometry x="-454" y="794" width="530" height="146" as="geometry" />
        </mxCell>
        <mxCell id="yeIbg6Vf4OMtqrhq6Q38-2" style="edgeStyle=orthogonalEdgeStyle;rounded=0;orthogonalLoop=1;jettySize=auto;html=1;exitX=0;exitY=0.5;exitDx=0;exitDy=0;exitPerimeter=0;" parent="x_zQF4Y2UBibgw9S-IBZ-36" source="wvfkLvsLn3xEdgtcsnYN-22" edge="1">
          <mxGeometry relative="1" as="geometry">
            <mxPoint x="130" y="73" as="targetPoint" />
            <mxPoint x="241.18490318790737" y="75.04347826086973" as="sourcePoint" />
            <Array as="points">
              <mxPoint x="130" y="73" />
            </Array>
          </mxGeometry>
        </mxCell>
        <mxCell id="yeIbg6Vf4OMtqrhq6Q38-4" style="edgeStyle=orthogonalEdgeStyle;rounded=0;orthogonalLoop=1;jettySize=auto;html=1;exitX=1;exitY=0.5;exitDx=0;exitDy=0;exitPerimeter=0;" parent="x_zQF4Y2UBibgw9S-IBZ-36" source="wvfkLvsLn3xEdgtcsnYN-22" edge="1">
          <mxGeometry relative="1" as="geometry">
            <mxPoint x="288.81509681209127" y="71.04347826086973" as="sourcePoint" />
            <mxPoint x="400.18" y="71" as="targetPoint" />
            <Array as="points">
              <mxPoint x="292" y="71" />
            </Array>
          </mxGeometry>
        </mxCell>
        <mxCell id="wvfkLvsLn3xEdgtcsnYN-22" value="Auto-Scaling" style="sketch=0;points=[[0,0,0],[0.25,0,0],[0.5,0,0],[0.75,0,0],[1,0,0],[0,1,0],[0.25,1,0],[0.5,1,0],[0.75,1,0],[1,1,0],[0,0.25,0],[0,0.5,0],[0,0.75,0],[1,0.25,0],[1,0.5,0],[1,0.75,0]];outlineConnect=0;fontColor=#232F3E;fillColor=#ED7100;strokeColor=#ffffff;dashed=0;verticalLabelPosition=bottom;verticalAlign=top;align=center;html=1;fontSize=12;fontStyle=0;aspect=fixed;shape=mxgraph.aws4.resourceIcon;resIcon=mxgraph.aws4.auto_scaling2;" parent="x_zQF4Y2UBibgw9S-IBZ-36" vertex="1">
          <mxGeometry x="237.5" y="45.5" width="55" height="55" as="geometry" />
        </mxCell>
        <mxCell id="x_zQF4Y2UBibgw9S-IBZ-28" value="" style="endArrow=classic;startArrow=none;html=1;rounded=0;entryX=1;entryY=0.5;entryDx=0;entryDy=0;entryPerimeter=0;startFill=0;" parent="1" source="wvfkLvsLn3xEdgtcsnYN-20" target="x_zQF4Y2UBibgw9S-IBZ-12" edge="1">
          <mxGeometry width="50" height="50" relative="1" as="geometry">
            <mxPoint x="-229" y="561.0000000000002" as="sourcePoint" />
            <mxPoint x="266" y="835" as="targetPoint" />
            <Array as="points">
              <mxPoint x="-254" y="560" />
              <mxPoint x="-254" y="705" />
              <mxPoint x="-254" y="844" />
            </Array>
          </mxGeometry>
        </mxCell>
        <mxCell id="UQrgSo6uh9nHudZJqQ-1-17" style="edgeStyle=orthogonalEdgeStyle;rounded=0;orthogonalLoop=1;jettySize=auto;html=1;" parent="1" source="UQrgSo6uh9nHudZJqQ-1-1" target="x_zQF4Y2UBibgw9S-IBZ-71" edge="1">
          <mxGeometry relative="1" as="geometry">
            <Array as="points">
              <mxPoint x="-1279" y="539" />
              <mxPoint x="-1279" y="360" />
            </Array>
          </mxGeometry>
        </mxCell>
        <mxCell id="UQrgSo6uh9nHudZJqQ-1-1" value="AWS Certificate &lt;br&gt;Manager (ACM)" style="sketch=0;points=[[0,0,0],[0.25,0,0],[0.5,0,0],[0.75,0,0],[1,0,0],[0,1,0],[0.25,1,0],[0.5,1,0],[0.75,1,0],[1,1,0],[0,0.25,0],[0,0.5,0],[0,0.75,0],[1,0.25,0],[1,0.5,0],[1,0.75,0]];outlineConnect=0;fontColor=#232F3E;fillColor=#DD344C;strokeColor=#ffffff;dashed=0;verticalLabelPosition=bottom;verticalAlign=top;align=center;html=1;fontSize=12;fontStyle=0;aspect=fixed;shape=mxgraph.aws4.resourceIcon;resIcon=mxgraph.aws4.certificate_manager_3;" parent="1" vertex="1">
          <mxGeometry x="-1389" y="500" width="78" height="78" as="geometry" />
        </mxCell>
        <mxCell id="UQrgSo6uh9nHudZJqQ-1-2" value="&lt;div&gt;SSL/TLS&lt;/div&gt;&lt;div&gt;HTTPS&lt;br&gt;&lt;/div&gt;" style="text;html=1;align=center;verticalAlign=middle;whiteSpace=wrap;rounded=0;" parent="1" vertex="1">
          <mxGeometry x="-151" y="130" width="60" height="30" as="geometry" />
        </mxCell>
        <mxCell id="UQrgSo6uh9nHudZJqQ-1-4" value="" style="endArrow=none;html=1;rounded=0;entryX=0.5;entryY=1;entryDx=0;entryDy=0;entryPerimeter=0;exitX=0.5;exitY=0;exitDx=0;exitDy=0;exitPerimeter=0;startArrow=classic;startFill=1;endFill=0;" parent="1" source="wvfkLvsLn3xEdgtcsnYN-20" target="x_zQF4Y2UBibgw9S-IBZ-73" edge="1">
          <mxGeometry width="50" height="50" relative="1" as="geometry">
            <mxPoint x="-264" y="385" as="sourcePoint" />
            <mxPoint x="-214" y="335" as="targetPoint" />
          </mxGeometry>
        </mxCell>
        <mxCell id="x_zQF4Y2UBibgw9S-IBZ-73" value="&lt;span style=&quot;background-color: rgb(255, 255, 255);&quot;&gt;AWS Certificate &lt;br&gt;Manager (ACM)&lt;/span&gt;" style="sketch=0;points=[[0,0,0],[0.25,0,0],[0.5,0,0],[0.75,0,0],[1,0,0],[0,1,0],[0.25,1,0],[0.5,1,0],[0.75,1,0],[1,1,0],[0,0.25,0],[0,0.5,0],[0,0.75,0],[1,0.25,0],[1,0.5,0],[1,0.75,0]];outlineConnect=0;fontColor=#232F3E;fillColor=#DD344C;strokeColor=#ffffff;dashed=0;verticalLabelPosition=bottom;verticalAlign=top;align=center;html=1;fontSize=12;fontStyle=0;aspect=fixed;shape=mxgraph.aws4.resourceIcon;resIcon=mxgraph.aws4.certificate_manager_3;" parent="1" vertex="1">
          <mxGeometry x="-233.5" y="105" width="78" height="78" as="geometry" />
        </mxCell>
        <mxCell id="UQrgSo6uh9nHudZJqQ-1-5" value="&lt;div&gt;AWS Elastic Container&amp;nbsp;&lt;/div&gt;&lt;div&gt;Registry (ECR)&lt;br&gt;&lt;/div&gt;" style="sketch=0;points=[[0,0,0],[0.25,0,0],[0.5,0,0],[0.75,0,0],[1,0,0],[0,1,0],[0.25,1,0],[0.5,1,0],[0.75,1,0],[1,1,0],[0,0.25,0],[0,0.5,0],[0,0.75,0],[1,0.25,0],[1,0.5,0],[1,0.75,0]];outlineConnect=0;fontColor=#232F3E;fillColor=#ED7100;strokeColor=#ffffff;dashed=0;verticalLabelPosition=bottom;verticalAlign=top;align=center;html=1;fontSize=12;fontStyle=0;aspect=fixed;shape=mxgraph.aws4.resourceIcon;resIcon=mxgraph.aws4.ecr;" parent="1" vertex="1">
          <mxGeometry x="-1031" y="331" width="78" height="78" as="geometry" />
        </mxCell>
        <mxCell id="UQrgSo6uh9nHudZJqQ-1-7" value="&lt;div style=&quot;font-size: 16px;&quot;&gt;AWS Web Application&lt;/div&gt;&lt;div style=&quot;font-size: 16px;&quot;&gt;Firewall (WAF)&lt;br style=&quot;font-size: 16px;&quot;&gt;&lt;/div&gt;" style="sketch=0;points=[[0,0,0],[0.25,0,0],[0.5,0,0],[0.75,0,0],[1,0,0],[0,1,0],[0.25,1,0],[0.5,1,0],[0.75,1,0],[1,1,0],[0,0.25,0],[0,0.5,0],[0,0.75,0],[1,0.25,0],[1,0.5,0],[1,0.75,0]];outlineConnect=0;fontColor=#232F3E;fillColor=#DD344C;strokeColor=#ffffff;dashed=0;verticalLabelPosition=bottom;verticalAlign=top;align=center;html=1;fontSize=16;fontStyle=0;aspect=fixed;shape=mxgraph.aws4.resourceIcon;resIcon=mxgraph.aws4.waf;" parent="1" vertex="1">
          <mxGeometry x="-2265" y="-1369" width="78" height="78" as="geometry" />
        </mxCell>
        <mxCell id="x_zQF4Y2UBibgw9S-IBZ-19" value="" style="endArrow=classic;startArrow=classic;html=1;rounded=0;" parent="1" source="x_zQF4Y2UBibgw9S-IBZ-18" target="x_zQF4Y2UBibgw9S-IBZ-17" edge="1">
          <mxGeometry width="50" height="50" relative="1" as="geometry">
            <mxPoint x="-399" y="846" as="sourcePoint" />
            <mxPoint x="186" y="467" as="targetPoint" />
            <Array as="points">
              <mxPoint x="-531" y="991" />
              <mxPoint x="-531" y="465" />
              <mxPoint x="-14" y="465" />
            </Array>
          </mxGeometry>
        </mxCell>
        <mxCell id="x_zQF4Y2UBibgw9S-IBZ-21" value="" style="endArrow=classic;html=1;rounded=0;" parent="1" source="x_zQF4Y2UBibgw9S-IBZ-18" target="x_zQF4Y2UBibgw9S-IBZ-14" edge="1">
          <mxGeometry width="50" height="50" relative="1" as="geometry">
            <mxPoint x="-321" y="845.215722120658" as="sourcePoint" />
            <mxPoint x="87" y="825" as="targetPoint" />
            <Array as="points">
              <mxPoint x="-208" y="991" />
              <mxPoint x="-209" y="1238" />
            </Array>
          </mxGeometry>
        </mxCell>
        <mxCell id="x_zQF4Y2UBibgw9S-IBZ-22" value="" style="endArrow=classic;html=1;rounded=0;" parent="1" source="x_zQF4Y2UBibgw9S-IBZ-18" target="x_zQF4Y2UBibgw9S-IBZ-15" edge="1">
          <mxGeometry width="50" height="50" relative="1" as="geometry">
            <mxPoint x="-321" y="845.4768292682927" as="sourcePoint" />
            <mxPoint x="877" y="695" as="targetPoint" />
            <Array as="points">
              <mxPoint x="-174" y="991" />
              <mxPoint x="-174" y="1237" />
            </Array>
          </mxGeometry>
        </mxCell>
        <mxCell id="UQrgSo6uh9nHudZJqQ-1-16" value="" style="shape=flexArrow;endArrow=classic;html=1;rounded=0;" parent="1" edge="1">
          <mxGeometry width="50" height="50" relative="1" as="geometry">
            <mxPoint x="-882" y="442" as="sourcePoint" />
            <mxPoint x="-680" y="441.5" as="targetPoint" />
          </mxGeometry>
        </mxCell>
        <mxCell id="UQrgSo6uh9nHudZJqQ-1-19" style="edgeStyle=orthogonalEdgeStyle;rounded=0;orthogonalLoop=1;jettySize=auto;html=1;entryX=0.5;entryY=0;entryDx=0;entryDy=0;entryPerimeter=0;" parent="1" source="UQrgSo6uh9nHudZJqQ-1-18" target="x_zQF4Y2UBibgw9S-IBZ-76" edge="1">
          <mxGeometry relative="1" as="geometry" />
        </mxCell>
        <mxCell id="UQrgSo6uh9nHudZJqQ-1-18" value="&lt;span style=&quot;background-color: rgb(255, 255, 255);&quot;&gt;User&lt;/span&gt;" style="sketch=0;outlineConnect=0;fontColor=#232F3E;gradientColor=none;fillColor=#232F3D;strokeColor=none;dashed=0;verticalLabelPosition=bottom;verticalAlign=top;align=center;html=1;fontSize=12;fontStyle=0;aspect=fixed;pointerEvents=1;shape=mxgraph.aws4.authenticated_user;" parent="1" vertex="1">
          <mxGeometry x="-233.5" y="-325" width="78" height="78" as="geometry" />
        </mxCell>
        <mxCell id="UQrgSo6uh9nHudZJqQ-1-20" value="VPN" style="sketch=0;points=[[0,0,0],[0.25,0,0],[0.5,0,0],[0.75,0,0],[1,0,0],[0,1,0],[0.25,1,0],[0.5,1,0],[0.75,1,0],[1,1,0],[0,0.25,0],[0,0.5,0],[0,0.75,0],[1,0.25,0],[1,0.5,0],[1,0.75,0]];outlineConnect=0;fontColor=#232F3E;fillColor=#8C4FFF;strokeColor=#ffffff;dashed=0;verticalLabelPosition=bottom;verticalAlign=top;align=center;html=1;fontSize=16;fontStyle=0;aspect=fixed;shape=mxgraph.aws4.resourceIcon;resIcon=mxgraph.aws4.site_to_site_vpn;" parent="1" vertex="1">
          <mxGeometry x="-2112" y="-1369" width="78" height="78" as="geometry" />
        </mxCell>
        <mxCell id="UQrgSo6uh9nHudZJqQ-1-21" value="Bucket S3&lt;br&gt;Stores tfstate files" style="outlineConnect=0;dashed=0;verticalLabelPosition=bottom;verticalAlign=top;align=center;html=1;shape=mxgraph.aws3.bucket_with_objects;fillColor=#E05243;gradientColor=none;" parent="1" vertex="1">
          <mxGeometry x="513" y="388" width="60" height="61.5" as="geometry" />
        </mxCell>
        <mxCell id="x_zQF4Y2UBibgw9S-IBZ-17" value="&lt;span style=&quot;background-color: rgb(255, 255, 255);&quot;&gt;Internet Gateway (IGW)&lt;/span&gt;" style="sketch=0;outlineConnect=0;fontColor=#232F3E;gradientColor=none;fillColor=#8C4FFF;strokeColor=none;dashed=0;verticalLabelPosition=bottom;verticalAlign=top;align=center;html=1;fontSize=12;fontStyle=0;aspect=fixed;pointerEvents=1;shape=mxgraph.aws4.internet_gateway;" parent="1" vertex="1">
          <mxGeometry x="-53.5" y="344" width="78" height="78" as="geometry" />
        </mxCell>
        <mxCell id="UQrgSo6uh9nHudZJqQ-1-24" value="" style="sketch=0;outlineConnect=0;fontColor=#232F3E;gradientColor=none;fillColor=#7AA116;strokeColor=none;dashed=0;verticalLabelPosition=bottom;verticalAlign=top;align=center;html=1;fontSize=12;fontStyle=0;aspect=fixed;pointerEvents=1;shape=mxgraph.aws4.policy;" parent="1" vertex="1">
          <mxGeometry x="509" y="523" width="78" height="67" as="geometry" />
        </mxCell>
        <mxCell id="wvfkLvsLn3xEdgtcsnYN-3" value="&lt;div style=&quot;font-size: 16px;&quot;&gt;Simple Notification&lt;/div&gt;&lt;div style=&quot;font-size: 16px;&quot;&gt;Service (SNS)&lt;br style=&quot;font-size: 16px;&quot;&gt;&lt;/div&gt;" style="sketch=0;points=[[0,0,0],[0.25,0,0],[0.5,0,0],[0.75,0,0],[1,0,0],[0,1,0],[0.25,1,0],[0.5,1,0],[0.75,1,0],[1,1,0],[0,0.25,0],[0,0.5,0],[0,0.75,0],[1,0.25,0],[1,0.5,0],[1,0.75,0]];outlineConnect=0;fontColor=#232F3E;fillColor=#E7157B;strokeColor=#ffffff;dashed=0;verticalLabelPosition=bottom;verticalAlign=top;align=center;html=1;fontSize=16;fontStyle=0;aspect=fixed;shape=mxgraph.aws4.resourceIcon;resIcon=mxgraph.aws4.sns;" parent="1" vertex="1">
          <mxGeometry x="-848" y="-1352" width="78" height="78" as="geometry" />
        </mxCell>
        <mxCell id="wvfkLvsLn3xEdgtcsnYN-4" value="CloudFront Cache" style="sketch=0;points=[[0,0,0],[0.25,0,0],[0.5,0,0],[0.75,0,0],[1,0,0],[0,1,0],[0.25,1,0],[0.5,1,0],[0.75,1,0],[1,1,0],[0,0.25,0],[0,0.5,0],[0,0.75,0],[1,0.25,0],[1,0.5,0],[1,0.75,0]];outlineConnect=0;fontColor=#232F3E;fillColor=#8C4FFF;strokeColor=#ffffff;dashed=0;verticalLabelPosition=bottom;verticalAlign=top;align=center;html=1;fontSize=16;fontStyle=0;aspect=fixed;shape=mxgraph.aws4.resourceIcon;resIcon=mxgraph.aws4.cloudfront;" parent="1" vertex="1">
          <mxGeometry x="-1341" y="-1374" width="78" height="78" as="geometry" />
        </mxCell>
        <mxCell id="wvfkLvsLn3xEdgtcsnYN-5" value="Bucket S3" style="sketch=0;points=[[0,0,0],[0.25,0,0],[0.5,0,0],[0.75,0,0],[1,0,0],[0,1,0],[0.25,1,0],[0.5,1,0],[0.75,1,0],[1,1,0],[0,0.25,0],[0,0.5,0],[0,0.75,0],[1,0.25,0],[1,0.5,0],[1,0.75,0]];outlineConnect=0;fontColor=#232F3E;fillColor=#7AA116;strokeColor=#ffffff;dashed=0;verticalLabelPosition=bottom;verticalAlign=top;align=center;html=1;fontSize=16;fontStyle=0;aspect=fixed;shape=mxgraph.aws4.resourceIcon;resIcon=mxgraph.aws4.s3;" parent="1" vertex="1">
          <mxGeometry x="-1156" y="-1374" width="78" height="78" as="geometry" />
        </mxCell>
        <mxCell id="wvfkLvsLn3xEdgtcsnYN-6" value="" style="endArrow=classic;html=1;rounded=0;fontSize=16;" parent="1" edge="1">
          <mxGeometry width="50" height="50" relative="1" as="geometry">
            <mxPoint x="-1432" y="-1332" as="sourcePoint" />
            <mxPoint x="-1341" y="-1332" as="targetPoint" />
          </mxGeometry>
        </mxCell>
        <mxCell id="wvfkLvsLn3xEdgtcsnYN-7" value="" style="endArrow=classic;html=1;rounded=0;entryX=0;entryY=0.5;entryDx=0;entryDy=0;entryPerimeter=0;fontSize=16;" parent="1" source="wvfkLvsLn3xEdgtcsnYN-4" target="wvfkLvsLn3xEdgtcsnYN-5" edge="1">
          <mxGeometry width="50" height="50" relative="1" as="geometry">
            <mxPoint x="-1265" y="-1333.26" as="sourcePoint" />
            <mxPoint x="-1174" y="-1333" as="targetPoint" />
          </mxGeometry>
        </mxCell>
        <mxCell id="wvfkLvsLn3xEdgtcsnYN-9" value="ElasticCache (Redis)" style="sketch=0;points=[[0,0,0],[0.25,0,0],[0.5,0,0],[0.75,0,0],[1,0,0],[0,1,0],[0.25,1,0],[0.5,1,0],[0.75,1,0],[1,1,0],[0,0.25,0],[0,0.5,0],[0,0.75,0],[1,0.25,0],[1,0.5,0],[1,0.75,0]];outlineConnect=0;fontColor=#232F3E;fillColor=#C925D1;strokeColor=#ffffff;dashed=0;verticalLabelPosition=bottom;verticalAlign=top;align=center;html=1;fontSize=16;fontStyle=0;aspect=fixed;shape=mxgraph.aws4.resourceIcon;resIcon=mxgraph.aws4.elasticache;" parent="1" vertex="1">
          <mxGeometry x="-1341" y="-1233" width="78" height="78" as="geometry" />
        </mxCell>
        <mxCell id="wvfkLvsLn3xEdgtcsnYN-10" value="&lt;div style=&quot;font-size: 16px;&quot;&gt;AWS DocumentDB&lt;/div&gt;&lt;div style=&quot;font-size: 16px;&quot;&gt;(MongoDB)&lt;br style=&quot;font-size: 16px;&quot;&gt;&lt;/div&gt;" style="sketch=0;points=[[0,0,0],[0.25,0,0],[0.5,0,0],[0.75,0,0],[1,0,0],[0,1,0],[0.25,1,0],[0.5,1,0],[0.75,1,0],[1,1,0],[0,0.25,0],[0,0.5,0],[0,0.75,0],[1,0.25,0],[1,0.5,0],[1,0.75,0]];outlineConnect=0;fontColor=#232F3E;fillColor=#C925D1;strokeColor=#ffffff;dashed=0;verticalLabelPosition=bottom;verticalAlign=top;align=center;html=1;fontSize=16;fontStyle=0;aspect=fixed;shape=mxgraph.aws4.resourceIcon;resIcon=mxgraph.aws4.documentdb_with_mongodb_compatibility;" parent="1" vertex="1">
          <mxGeometry x="-1835" y="-1372" width="78" height="78" as="geometry" />
        </mxCell>
        <mxCell id="wvfkLvsLn3xEdgtcsnYN-11" value="Armazenamento" style="text;html=1;align=center;verticalAlign=middle;whiteSpace=wrap;rounded=0;fontSize=60;" parent="1" vertex="1">
          <mxGeometry x="-1917" y="-1490" width="460" height="61" as="geometry" />
        </mxCell>
        <mxCell id="wvfkLvsLn3xEdgtcsnYN-12" value="Segurança" style="text;html=1;align=center;verticalAlign=middle;whiteSpace=wrap;rounded=0;fontSize=60;" parent="1" vertex="1">
          <mxGeometry x="-2302" y="-1490" width="310" height="60" as="geometry" />
        </mxCell>
        <mxCell id="wvfkLvsLn3xEdgtcsnYN-13" value="Cache" style="text;html=1;align=center;verticalAlign=middle;whiteSpace=wrap;rounded=0;fontSize=60;" parent="1" vertex="1">
          <mxGeometry x="-1324" y="-1484" width="195" height="61" as="geometry" />
        </mxCell>
        <mxCell id="wvfkLvsLn3xEdgtcsnYN-14" value="&lt;div style=&quot;font-size: 16px;&quot;&gt;AWS Shield&lt;/div&gt;&lt;div style=&quot;font-size: 16px;&quot;&gt;(DDoS)&lt;br style=&quot;font-size: 16px;&quot;&gt;&lt;/div&gt;" style="sketch=0;points=[[0,0,0],[0.25,0,0],[0.5,0,0],[0.75,0,0],[1,0,0],[0,1,0],[0.25,1,0],[0.5,1,0],[0.75,1,0],[1,1,0],[0,0.25,0],[0,0.5,0],[0,0.75,0],[1,0.25,0],[1,0.5,0],[1,0.75,0]];outlineConnect=0;fontColor=#232F3E;fillColor=#DD344C;strokeColor=#ffffff;dashed=0;verticalLabelPosition=bottom;verticalAlign=top;align=center;html=1;fontSize=16;fontStyle=0;aspect=fixed;shape=mxgraph.aws4.resourceIcon;resIcon=mxgraph.aws4.shield;" parent="1" vertex="1">
          <mxGeometry x="-2112" y="-1211" width="78" height="78" as="geometry" />
        </mxCell>
        <mxCell id="wvfkLvsLn3xEdgtcsnYN-15" value="Amazon RDS&lt;br style=&quot;font-size: 16px;&quot;&gt;(PostgreSQL)" style="sketch=0;points=[[0,0,0],[0.25,0,0],[0.5,0,0],[0.75,0,0],[1,0,0],[0,1,0],[0.25,1,0],[0.5,1,0],[0.75,1,0],[1,1,0],[0,0.25,0],[0,0.5,0],[0,0.75,0],[1,0.25,0],[1,0.5,0],[1,0.75,0]];outlineConnect=0;fontColor=#232F3E;fillColor=#C925D1;strokeColor=#ffffff;dashed=0;verticalLabelPosition=bottom;verticalAlign=top;align=center;html=1;fontSize=16;fontStyle=0;aspect=fixed;shape=mxgraph.aws4.resourceIcon;resIcon=mxgraph.aws4.rds;" parent="1" vertex="1">
          <mxGeometry x="-1667" y="-1372" width="78" height="78" as="geometry" />
        </mxCell>
        <mxCell id="wvfkLvsLn3xEdgtcsnYN-16" value="&lt;div style=&quot;font-size: 16px;&quot;&gt;DynamoDB&lt;/div&gt;&lt;div style=&quot;font-size: 16px;&quot;&gt;(Like AuroraDB but NoSQL)&lt;br style=&quot;font-size: 16px;&quot;&gt;&lt;/div&gt;" style="sketch=0;points=[[0,0,0],[0.25,0,0],[0.5,0,0],[0.75,0,0],[1,0,0],[0,1,0],[0.25,1,0],[0.5,1,0],[0.75,1,0],[1,1,0],[0,0.25,0],[0,0.5,0],[0,0.75,0],[1,0.25,0],[1,0.5,0],[1,0.75,0]];outlineConnect=0;fontColor=#232F3E;fillColor=#C925D1;strokeColor=#ffffff;dashed=0;verticalLabelPosition=bottom;verticalAlign=top;align=center;html=1;fontSize=16;fontStyle=0;aspect=fixed;shape=mxgraph.aws4.resourceIcon;resIcon=mxgraph.aws4.dynamodb;" parent="1" vertex="1">
          <mxGeometry x="-1833" y="-1198" width="78" height="78" as="geometry" />
        </mxCell>
        <mxCell id="wvfkLvsLn3xEdgtcsnYN-17" value="OpenSearch" style="sketch=0;points=[[0,0,0],[0.25,0,0],[0.5,0,0],[0.75,0,0],[1,0,0],[0,1,0],[0.25,1,0],[0.5,1,0],[0.75,1,0],[1,1,0],[0,0.25,0],[0,0.5,0],[0,0.75,0],[1,0.25,0],[1,0.5,0],[1,0.75,0]];outlineConnect=0;fontColor=#232F3E;fillColor=#8C4FFF;strokeColor=#ffffff;dashed=0;verticalLabelPosition=bottom;verticalAlign=top;align=center;html=1;fontSize=16;fontStyle=0;aspect=fixed;shape=mxgraph.aws4.resourceIcon;resIcon=mxgraph.aws4.elasticsearch_service;" parent="1" vertex="1">
          <mxGeometry x="-1667" y="-1198" width="78" height="78" as="geometry" />
        </mxCell>
        <mxCell id="wvfkLvsLn3xEdgtcsnYN-18" value="Queue/Notification" style="text;html=1;align=center;verticalAlign=middle;whiteSpace=wrap;rounded=0;fontSize=60;" parent="1" vertex="1">
          <mxGeometry x="-988" y="-1484" width="530" height="61" as="geometry" />
        </mxCell>
        <mxCell id="wvfkLvsLn3xEdgtcsnYN-20" value="&lt;div&gt;Application Load&lt;/div&gt;&lt;div&gt;Balancer&lt;br&gt;&lt;/div&gt;" style="sketch=0;points=[[0,0,0],[0.25,0,0],[0.5,0,0],[0.75,0,0],[1,0,0],[0,1,0],[0.25,1,0],[0.5,1,0],[0.75,1,0],[1,1,0],[0,0.25,0],[0,0.5,0],[0,0.75,0],[1,0.25,0],[1,0.5,0],[1,0.75,0]];outlineConnect=0;fontColor=#232F3E;fillColor=#ED7100;strokeColor=#ffffff;dashed=0;verticalLabelPosition=bottom;verticalAlign=top;align=center;html=1;fontSize=12;fontStyle=0;aspect=fixed;shape=mxgraph.aws4.resourceIcon;resIcon=mxgraph.aws4.elastic_load_balancing;" parent="1" vertex="1">
          <mxGeometry x="-224" y="529" width="61" height="61" as="geometry" />
        </mxCell>
        <mxCell id="wvfkLvsLn3xEdgtcsnYN-24" style="edgeStyle=orthogonalEdgeStyle;rounded=0;orthogonalLoop=1;jettySize=auto;html=1;exitX=0;exitY=0.5;exitDx=0;exitDy=0;exitPerimeter=0;" parent="1" source="wvfkLvsLn3xEdgtcsnYN-23" edge="1">
          <mxGeometry relative="1" as="geometry">
            <mxPoint x="-320" y="1260" as="targetPoint" />
            <Array as="points">
              <mxPoint x="-300" y="1274" />
              <mxPoint x="-300" y="1260" />
            </Array>
            <mxPoint x="-216" y="1274" as="sourcePoint" />
          </mxGeometry>
        </mxCell>
        <mxCell id="wvfkLvsLn3xEdgtcsnYN-25" value="&lt;div style=&quot;font-size: 16px;&quot;&gt;Siple Queue&amp;nbsp;&lt;/div&gt;&lt;div style=&quot;font-size: 16px;&quot;&gt;Service (SQS)&lt;br style=&quot;font-size: 16px;&quot;&gt;&lt;/div&gt;" style="sketch=0;points=[[0,0,0],[0.25,0,0],[0.5,0,0],[0.75,0,0],[1,0,0],[0,1,0],[0.25,1,0],[0.5,1,0],[0.75,1,0],[1,1,0],[0,0.25,0],[0,0.5,0],[0,0.75,0],[1,0.25,0],[1,0.5,0],[1,0.75,0]];outlineConnect=0;fontColor=#232F3E;fillColor=#E7157B;strokeColor=#ffffff;dashed=0;verticalLabelPosition=bottom;verticalAlign=top;align=center;html=1;fontSize=16;fontStyle=0;aspect=fixed;shape=mxgraph.aws4.resourceIcon;resIcon=mxgraph.aws4.sqs;" parent="1" vertex="1">
          <mxGeometry x="-628" y="-1350" width="78" height="78" as="geometry" />
        </mxCell>
        <mxCell id="Xu9ZV7ZwulzIjtbpUH5x-1" value="&lt;div&gt;Env variables&lt;/div&gt;&lt;div&gt;Services Keys&lt;br&gt;&lt;/div&gt;" style="text;html=1;align=center;verticalAlign=middle;whiteSpace=wrap;rounded=0;fontSize=60;" parent="1" vertex="1">
          <mxGeometry x="-242" y="-1520" width="530" height="133" as="geometry" />
        </mxCell>
        <mxCell id="Xu9ZV7ZwulzIjtbpUH5x-2" value="&lt;div style=&quot;font-size: 16px;&quot;&gt;AWS System Manager&lt;/div&gt;&lt;div style=&quot;font-size: 16px;&quot;&gt;Parameter Store&lt;br style=&quot;font-size: 16px;&quot;&gt;&lt;/div&gt;" style="sketch=0;outlineConnect=0;fontColor=#232F3E;gradientColor=none;fillColor=#E7157B;strokeColor=none;dashed=0;verticalLabelPosition=bottom;verticalAlign=top;align=center;html=1;fontSize=16;fontStyle=0;aspect=fixed;pointerEvents=1;shape=mxgraph.aws4.parameter_store;" parent="1" vertex="1">
          <mxGeometry x="-121" y="-1349" width="75" height="78" as="geometry" />
        </mxCell>
        <mxCell id="Xu9ZV7ZwulzIjtbpUH5x-3" value="&lt;div&gt;AWS Certificate&lt;/div&gt;&lt;div&gt;Manager (ACM)&lt;br&gt;&lt;/div&gt;" style="sketch=0;points=[[0,0,0],[0.25,0,0],[0.5,0,0],[0.75,0,0],[1,0,0],[0,1,0],[0.25,1,0],[0.5,1,0],[0.75,1,0],[1,1,0],[0,0.25,0],[0,0.5,0],[0,0.75,0],[1,0.25,0],[1,0.5,0],[1,0.75,0]];outlineConnect=0;fontColor=#232F3E;fillColor=#DD344C;strokeColor=#ffffff;dashed=0;verticalLabelPosition=bottom;verticalAlign=top;align=center;html=1;fontSize=12;fontStyle=0;aspect=fixed;shape=mxgraph.aws4.resourceIcon;resIcon=mxgraph.aws4.certificate_manager_3;" parent="1" vertex="1">
          <mxGeometry x="-2266" y="-1210" width="78" height="78" as="geometry" />
        </mxCell>
        <mxCell id="Xu9ZV7ZwulzIjtbpUH5x-4" value="&lt;div style=&quot;font-size: 16px;&quot;&gt;&lt;font style=&quot;font-size: 16px;&quot;&gt;AWS Secrets&lt;/font&gt;&lt;/div&gt;&lt;div style=&quot;font-size: 16px;&quot;&gt;&lt;font style=&quot;font-size: 16px;&quot;&gt;Manager&lt;br&gt;&lt;/font&gt;&lt;/div&gt;" style="sketch=0;points=[[0,0,0],[0.25,0,0],[0.5,0,0],[0.75,0,0],[1,0,0],[0,1,0],[0.25,1,0],[0.5,1,0],[0.75,1,0],[1,1,0],[0,0.25,0],[0,0.5,0],[0,0.75,0],[1,0.25,0],[1,0.5,0],[1,0.75,0]];outlineConnect=0;fontColor=#232F3E;fillColor=#DD344C;strokeColor=#ffffff;dashed=0;verticalLabelPosition=bottom;verticalAlign=top;align=center;html=1;fontSize=12;fontStyle=0;aspect=fixed;shape=mxgraph.aws4.resourceIcon;resIcon=mxgraph.aws4.secrets_manager;" parent="1" vertex="1">
          <mxGeometry x="78" y="-1350" width="78" height="78" as="geometry" />
        </mxCell>
        <mxCell id="Xu9ZV7ZwulzIjtbpUH5x-5" value="EventBridge" style="sketch=0;points=[[0,0,0],[0.25,0,0],[0.5,0,0],[0.75,0,0],[1,0,0],[0,1,0],[0.25,1,0],[0.5,1,0],[0.75,1,0],[1,1,0],[0,0.25,0],[0,0.5,0],[0,0.75,0],[1,0.25,0],[1,0.5,0],[1,0.75,0]];outlineConnect=0;fontColor=#232F3E;fillColor=#E7157B;strokeColor=#ffffff;dashed=0;verticalLabelPosition=bottom;verticalAlign=top;align=center;html=1;fontSize=12;fontStyle=0;aspect=fixed;shape=mxgraph.aws4.resourceIcon;resIcon=mxgraph.aws4.eventbridge;" parent="1" vertex="1">
          <mxGeometry x="-848" y="-1176" width="78" height="78" as="geometry" />
        </mxCell>
        <mxCell id="Xu9ZV7ZwulzIjtbpUH5x-6" value="Kinesis" style="sketch=0;points=[[0,0,0],[0.25,0,0],[0.5,0,0],[0.75,0,0],[1,0,0],[0,1,0],[0.25,1,0],[0.5,1,0],[0.75,1,0],[1,1,0],[0,0.25,0],[0,0.5,0],[0,0.75,0],[1,0.25,0],[1,0.5,0],[1,0.75,0]];outlineConnect=0;fontColor=#232F3E;fillColor=#8C4FFF;strokeColor=#ffffff;dashed=0;verticalLabelPosition=bottom;verticalAlign=top;align=center;html=1;fontSize=12;fontStyle=0;aspect=fixed;shape=mxgraph.aws4.resourceIcon;resIcon=mxgraph.aws4.kinesis;" parent="1" vertex="1">
          <mxGeometry x="-628" y="-1176" width="78" height="78" as="geometry" />
        </mxCell>
        <mxCell id="Xu9ZV7ZwulzIjtbpUH5x-7" value="Workflows" style="text;html=1;align=center;verticalAlign=middle;whiteSpace=wrap;rounded=0;fontSize=60;" parent="1" vertex="1">
          <mxGeometry x="318" y="-1484" width="290" height="61" as="geometry" />
        </mxCell>
        <mxCell id="Xu9ZV7ZwulzIjtbpUH5x-8" value="&lt;div&gt;&lt;font style=&quot;font-size: 16px;&quot;&gt;Step Functions&lt;/font&gt;&lt;/div&gt;" style="sketch=0;points=[[0,0,0],[0.25,0,0],[0.5,0,0],[0.75,0,0],[1,0,0],[0,1,0],[0.25,1,0],[0.5,1,0],[0.75,1,0],[1,1,0],[0,0.25,0],[0,0.5,0],[0,0.75,0],[1,0.25,0],[1,0.5,0],[1,0.75,0]];outlineConnect=0;fontColor=#232F3E;fillColor=#E7157B;strokeColor=#ffffff;dashed=0;verticalLabelPosition=bottom;verticalAlign=top;align=center;html=1;fontSize=12;fontStyle=0;aspect=fixed;shape=mxgraph.aws4.resourceIcon;resIcon=mxgraph.aws4.step_functions;" parent="1" vertex="1">
          <mxGeometry x="418" y="-1352" width="78" height="78" as="geometry" />
        </mxCell>
        <mxCell id="Xu9ZV7ZwulzIjtbpUH5x-9" value="IaC" style="text;html=1;align=center;verticalAlign=middle;whiteSpace=wrap;rounded=0;fontSize=60;" parent="1" vertex="1">
          <mxGeometry x="736" y="-1483" width="120" height="61" as="geometry" />
        </mxCell>
        <mxCell id="Xu9ZV7ZwulzIjtbpUH5x-10" value="&lt;font style=&quot;font-size: 16px;&quot;&gt;CloudFormation&lt;/font&gt;" style="sketch=0;points=[[0,0,0],[0.25,0,0],[0.5,0,0],[0.75,0,0],[1,0,0],[0,1,0],[0.25,1,0],[0.5,1,0],[0.75,1,0],[1,1,0],[0,0.25,0],[0,0.5,0],[0,0.75,0],[1,0.25,0],[1,0.5,0],[1,0.75,0]];points=[[0,0,0],[0.25,0,0],[0.5,0,0],[0.75,0,0],[1,0,0],[0,1,0],[0.25,1,0],[0.5,1,0],[0.75,1,0],[1,1,0],[0,0.25,0],[0,0.5,0],[0,0.75,0],[1,0.25,0],[1,0.5,0],[1,0.75,0]];outlineConnect=0;fontColor=#232F3E;fillColor=#E7157B;strokeColor=#ffffff;dashed=0;verticalLabelPosition=bottom;verticalAlign=top;align=center;html=1;fontSize=12;fontStyle=0;aspect=fixed;shape=mxgraph.aws4.resourceIcon;resIcon=mxgraph.aws4.cloudformation;" parent="1" vertex="1">
          <mxGeometry x="658" y="-1353" width="78" height="78" as="geometry" />
        </mxCell>
        <mxCell id="Xu9ZV7ZwulzIjtbpUH5x-11" value="&lt;div&gt;Cloud Development Kit&lt;/div&gt;&lt;div&gt;(CDK)&lt;br&gt;&lt;/div&gt;" style="sketch=0;points=[[0,0,0],[0.25,0,0],[0.5,0,0],[0.75,0,0],[1,0,0],[0,1,0],[0.25,1,0],[0.5,1,0],[0.75,1,0],[1,1,0],[0,0.25,0],[0,0.5,0],[0,0.75,0],[1,0.25,0],[1,0.5,0],[1,0.75,0]];outlineConnect=0;fontColor=#232F3E;fillColor=#C925D1;strokeColor=#ffffff;dashed=0;verticalLabelPosition=bottom;verticalAlign=top;align=center;html=1;fontSize=12;fontStyle=0;aspect=fixed;shape=mxgraph.aws4.resourceIcon;resIcon=mxgraph.aws4.cloud_development_kit;" parent="1" vertex="1">
          <mxGeometry x="846" y="-1352" width="78" height="78" as="geometry" />
        </mxCell>
        <mxCell id="Xu9ZV7ZwulzIjtbpUH5x-13" value="Misc" style="text;html=1;align=center;verticalAlign=middle;whiteSpace=wrap;rounded=0;fontSize=60;" parent="1" vertex="1">
          <mxGeometry x="1090" y="-1487" width="171" height="61" as="geometry" />
        </mxCell>
        <mxCell id="Xu9ZV7ZwulzIjtbpUH5x-15" value="&lt;div style=&quot;font-size: 16px;&quot;&gt;&lt;font style=&quot;font-size: 16px;&quot;&gt;Identity &amp;amp; Access&amp;nbsp;&lt;/font&gt;&lt;/div&gt;&lt;div style=&quot;font-size: 16px;&quot;&gt;&lt;font style=&quot;font-size: 16px;&quot;&gt;&lt;font style=&quot;font-size: 16px;&quot;&gt;Management (IAM)&lt;/font&gt;&lt;br&gt;&lt;/font&gt;&lt;/div&gt;" style="sketch=0;points=[[0,0,0],[0.25,0,0],[0.5,0,0],[0.75,0,0],[1,0,0],[0,1,0],[0.25,1,0],[0.5,1,0],[0.75,1,0],[1,1,0],[0,0.25,0],[0,0.5,0],[0,0.75,0],[1,0.25,0],[1,0.5,0],[1,0.75,0]];outlineConnect=0;fontColor=#232F3E;fillColor=#DD344C;strokeColor=#ffffff;dashed=0;verticalLabelPosition=bottom;verticalAlign=top;align=center;html=1;fontSize=12;fontStyle=0;aspect=fixed;shape=mxgraph.aws4.resourceIcon;resIcon=mxgraph.aws4.identity_and_access_management;" parent="1" vertex="1">
          <mxGeometry x="1057" y="-1353" width="78" height="78" as="geometry" />
        </mxCell>
        <mxCell id="Xu9ZV7ZwulzIjtbpUH5x-16" value="&lt;font style=&quot;font-size: 16px;&quot;&gt;CloudWatch&lt;/font&gt;" style="sketch=0;points=[[0,0,0],[0.25,0,0],[0.5,0,0],[0.75,0,0],[1,0,0],[0,1,0],[0.25,1,0],[0.5,1,0],[0.75,1,0],[1,1,0],[0,0.25,0],[0,0.5,0],[0,0.75,0],[1,0.25,0],[1,0.5,0],[1,0.75,0]];points=[[0,0,0],[0.25,0,0],[0.5,0,0],[0.75,0,0],[1,0,0],[0,1,0],[0.25,1,0],[0.5,1,0],[0.75,1,0],[1,1,0],[0,0.25,0],[0,0.5,0],[0,0.75,0],[1,0.25,0],[1,0.5,0],[1,0.75,0]];outlineConnect=0;fontColor=#232F3E;fillColor=#E7157B;strokeColor=#ffffff;dashed=0;verticalLabelPosition=bottom;verticalAlign=top;align=center;html=1;fontSize=12;fontStyle=0;aspect=fixed;shape=mxgraph.aws4.resourceIcon;resIcon=mxgraph.aws4.cloudwatch_2;" parent="1" vertex="1">
          <mxGeometry x="1266" y="-1353" width="78" height="78" as="geometry" />
        </mxCell>
        <mxCell id="Xu9ZV7ZwulzIjtbpUH5x-17" value="&lt;div style=&quot;font-size: 16px;&quot;&gt;AWS Cognito&lt;/div&gt;&lt;div style=&quot;font-size: 16px;&quot;&gt;(Authentication &amp;amp; Authorization)&lt;br style=&quot;font-size: 16px;&quot;&gt;&lt;/div&gt;" style="sketch=0;points=[[0,0,0],[0.25,0,0],[0.5,0,0],[0.75,0,0],[1,0,0],[0,1,0],[0.25,1,0],[0.5,1,0],[0.75,1,0],[1,1,0],[0,0.25,0],[0,0.5,0],[0,0.75,0],[1,0.25,0],[1,0.5,0],[1,0.75,0]];outlineConnect=0;fontColor=#232F3E;fillColor=#DD344C;strokeColor=#ffffff;dashed=0;verticalLabelPosition=bottom;verticalAlign=top;align=center;html=1;fontSize=16;fontStyle=0;aspect=fixed;shape=mxgraph.aws4.resourceIcon;resIcon=mxgraph.aws4.cognito;" parent="1" vertex="1">
          <mxGeometry x="1057" y="-1180" width="78" height="78" as="geometry" />
        </mxCell>
        <mxCell id="Xu9ZV7ZwulzIjtbpUH5x-18" value="&lt;font style=&quot;font-size: 16px;&quot;&gt;API Gateway&lt;/font&gt;" style="sketch=0;points=[[0,0,0],[0.25,0,0],[0.5,0,0],[0.75,0,0],[1,0,0],[0,1,0],[0.25,1,0],[0.5,1,0],[0.75,1,0],[1,1,0],[0,0.25,0],[0,0.5,0],[0,0.75,0],[1,0.25,0],[1,0.5,0],[1,0.75,0]];outlineConnect=0;fontColor=#232F3E;fillColor=#E7157B;strokeColor=#ffffff;dashed=0;verticalLabelPosition=bottom;verticalAlign=top;align=center;html=1;fontSize=12;fontStyle=0;aspect=fixed;shape=mxgraph.aws4.resourceIcon;resIcon=mxgraph.aws4.api_gateway;" parent="1" vertex="1">
          <mxGeometry x="1268" y="-1180" width="78" height="78" as="geometry" />
        </mxCell>
        <mxCell id="hAll9fopkxcPj5hgn6QA-12" style="edgeStyle=orthogonalEdgeStyle;rounded=0;orthogonalLoop=1;jettySize=auto;html=1;" edge="1" parent="1" source="hAll9fopkxcPj5hgn6QA-1" target="hAll9fopkxcPj5hgn6QA-6">
          <mxGeometry relative="1" as="geometry">
            <Array as="points">
              <mxPoint x="-2020" y="2640" />
              <mxPoint x="-2020" y="2640" />
            </Array>
          </mxGeometry>
        </mxCell>
        <mxCell id="hAll9fopkxcPj5hgn6QA-1" value="&lt;font style=&quot;font-size: 16px;&quot;&gt;CloudWatch&lt;/font&gt;" style="sketch=0;points=[[0,0,0],[0.25,0,0],[0.5,0,0],[0.75,0,0],[1,0,0],[0,1,0],[0.25,1,0],[0.5,1,0],[0.75,1,0],[1,1,0],[0,0.25,0],[0,0.5,0],[0,0.75,0],[1,0.25,0],[1,0.5,0],[1,0.75,0]];points=[[0,0,0],[0.25,0,0],[0.5,0,0],[0.75,0,0],[1,0,0],[0,1,0],[0.25,1,0],[0.5,1,0],[0.75,1,0],[1,1,0],[0,0.25,0],[0,0.5,0],[0,0.75,0],[1,0.25,0],[1,0.5,0],[1,0.75,0]];outlineConnect=0;fontColor=#232F3E;fillColor=#E7157B;strokeColor=#ffffff;dashed=0;verticalLabelPosition=bottom;verticalAlign=top;align=center;html=1;fontSize=16;fontStyle=0;aspect=fixed;shape=mxgraph.aws4.resourceIcon;resIcon=mxgraph.aws4.cloudwatch_2;" vertex="1" parent="1">
          <mxGeometry x="-2270" y="2610" width="78" height="78" as="geometry" />
        </mxCell>
        <mxCell id="hAll9fopkxcPj5hgn6QA-4" value="&lt;div&gt;AWS Lambda&lt;/div&gt;&lt;div&gt;Function&lt;br&gt;&lt;/div&gt;" style="sketch=0;points=[[0,0,0],[0.25,0,0],[0.5,0,0],[0.75,0,0],[1,0,0],[0,1,0],[0.25,1,0],[0.5,1,0],[0.75,1,0],[1,1,0],[0,0.25,0],[0,0.5,0],[0,0.75,0],[1,0.25,0],[1,0.5,0],[1,0.75,0]];outlineConnect=0;fontColor=#232F3E;fillColor=#ED7100;strokeColor=#ffffff;dashed=0;verticalLabelPosition=bottom;verticalAlign=top;align=center;html=1;fontSize=12;fontStyle=0;aspect=fixed;shape=mxgraph.aws4.resourceIcon;resIcon=mxgraph.aws4.lambda;" vertex="1" parent="1">
          <mxGeometry x="1057" y="-1010" width="78" height="78" as="geometry" />
        </mxCell>
        <mxCell id="hAll9fopkxcPj5hgn6QA-13" style="edgeStyle=orthogonalEdgeStyle;rounded=0;orthogonalLoop=1;jettySize=auto;html=1;" edge="1" parent="1" source="hAll9fopkxcPj5hgn6QA-6" target="hAll9fopkxcPj5hgn6QA-1">
          <mxGeometry relative="1" as="geometry">
            <Array as="points">
              <mxPoint x="-2140" y="2660" />
              <mxPoint x="-2140" y="2660" />
            </Array>
          </mxGeometry>
        </mxCell>
        <mxCell id="hAll9fopkxcPj5hgn6QA-14" style="edgeStyle=orthogonalEdgeStyle;rounded=0;orthogonalLoop=1;jettySize=auto;html=1;" edge="1" parent="1" source="hAll9fopkxcPj5hgn6QA-6" target="hAll9fopkxcPj5hgn6QA-10">
          <mxGeometry relative="1" as="geometry" />
        </mxCell>
        <mxCell id="hAll9fopkxcPj5hgn6QA-7" value="Amazon EC2" style="sketch=0;points=[[0,0,0],[0.25,0,0],[0.5,0,0],[0.75,0,0],[1,0,0],[0,1,0],[0.25,1,0],[0.5,1,0],[0.75,1,0],[1,1,0],[0,0.25,0],[0,0.5,0],[0,0.75,0],[1,0.25,0],[1,0.5,0],[1,0.75,0]];outlineConnect=0;fontColor=#232F3E;fillColor=#ED7100;strokeColor=#ffffff;dashed=0;verticalLabelPosition=bottom;verticalAlign=top;align=center;html=1;fontSize=16;fontStyle=0;aspect=fixed;shape=mxgraph.aws4.resourceIcon;resIcon=mxgraph.aws4.ec2;labelBorderColor=none;" vertex="1" parent="1">
          <mxGeometry x="-1694" y="2610" width="78" height="78" as="geometry" />
        </mxCell>
        <mxCell id="hAll9fopkxcPj5hgn6QA-8" value="Amazon RDS&lt;br style=&quot;font-size: 16px;&quot;&gt;(PostgreSQL)" style="sketch=0;points=[[0,0,0],[0.25,0,0],[0.5,0,0],[0.75,0,0],[1,0,0],[0,1,0],[0.25,1,0],[0.5,1,0],[0.75,1,0],[1,1,0],[0,0.25,0],[0,0.5,0],[0,0.75,0],[1,0.25,0],[1,0.5,0],[1,0.75,0]];outlineConnect=0;fontColor=#232F3E;fillColor=#C925D1;strokeColor=#ffffff;dashed=0;verticalLabelPosition=bottom;verticalAlign=top;align=center;html=1;fontSize=16;fontStyle=0;aspect=fixed;shape=mxgraph.aws4.resourceIcon;resIcon=mxgraph.aws4.rds;" vertex="1" parent="1">
          <mxGeometry x="-1514" y="2612" width="78" height="78" as="geometry" />
        </mxCell>
        <mxCell id="hAll9fopkxcPj5hgn6QA-15" style="edgeStyle=orthogonalEdgeStyle;rounded=0;orthogonalLoop=1;jettySize=auto;html=1;" edge="1" parent="1" source="hAll9fopkxcPj5hgn6QA-9" target="hAll9fopkxcPj5hgn6QA-6">
          <mxGeometry relative="1" as="geometry" />
        </mxCell>
        <mxCell id="hAll9fopkxcPj5hgn6QA-9" value="&lt;div style=&quot;font-size: 16px;&quot;&gt;&lt;font style=&quot;font-size: 16px;&quot;&gt;Identity &amp;amp; Access&amp;nbsp;&lt;/font&gt;&lt;/div&gt;&lt;div style=&quot;font-size: 16px;&quot;&gt;&lt;font style=&quot;font-size: 16px;&quot;&gt;&lt;font style=&quot;font-size: 16px;&quot;&gt;Management (IAM)&lt;/font&gt;&lt;br style=&quot;font-size: 16px;&quot;&gt;&lt;/font&gt;&lt;/div&gt;" style="sketch=0;points=[[0,0,0],[0.25,0,0],[0.5,0,0],[0.75,0,0],[1,0,0],[0,1,0],[0.25,1,0],[0.5,1,0],[0.75,1,0],[1,1,0],[0,0.25,0],[0,0.5,0],[0,0.75,0],[1,0.25,0],[1,0.5,0],[1,0.75,0]];outlineConnect=0;fontColor=#232F3E;fillColor=#DD344C;strokeColor=#ffffff;dashed=0;verticalLabelPosition=bottom;verticalAlign=top;align=center;html=1;fontSize=16;fontStyle=0;aspect=fixed;shape=mxgraph.aws4.resourceIcon;resIcon=mxgraph.aws4.identity_and_access_management;" vertex="1" parent="1">
          <mxGeometry x="-2268" y="2806" width="78" height="78" as="geometry" />
        </mxCell>
        <mxCell id="hAll9fopkxcPj5hgn6QA-10" value="&lt;div style=&quot;font-size: 16px;&quot;&gt;AWS DocumentDB&lt;/div&gt;&lt;div style=&quot;font-size: 16px;&quot;&gt;(MongoDB)&lt;br style=&quot;font-size: 16px;&quot;&gt;&lt;/div&gt;" style="sketch=0;points=[[0,0,0],[0.25,0,0],[0.5,0,0],[0.75,0,0],[1,0,0],[0,1,0],[0.25,1,0],[0.5,1,0],[0.75,1,0],[1,1,0],[0,0.25,0],[0,0.5,0],[0,0.75,0],[1,0.25,0],[1,0.5,0],[1,0.75,0]];outlineConnect=0;fontColor=#232F3E;fillColor=#C925D1;strokeColor=#ffffff;dashed=0;verticalLabelPosition=bottom;verticalAlign=top;align=center;html=1;fontSize=16;fontStyle=0;aspect=fixed;shape=mxgraph.aws4.resourceIcon;resIcon=mxgraph.aws4.documentdb_with_mongodb_compatibility;labelBackgroundColor=default;" vertex="1" parent="1">
          <mxGeometry x="-1970" y="2400" width="78" height="78" as="geometry" />
        </mxCell>
        <mxCell id="hAll9fopkxcPj5hgn6QA-16" style="edgeStyle=orthogonalEdgeStyle;rounded=0;orthogonalLoop=1;jettySize=auto;html=1;" edge="1" parent="1" source="hAll9fopkxcPj5hgn6QA-6" target="hAll9fopkxcPj5hgn6QA-7">
          <mxGeometry relative="1" as="geometry" />
        </mxCell>
        <mxCell id="hAll9fopkxcPj5hgn6QA-6" value="&lt;div style=&quot;font-size: 16px;&quot;&gt;AWS Lambda&lt;/div&gt;&lt;div style=&quot;font-size: 16px;&quot;&gt;Function&lt;br style=&quot;font-size: 16px;&quot;&gt;&lt;/div&gt;" style="sketch=0;points=[[0,0,0],[0.25,0,0],[0.5,0,0],[0.75,0,0],[1,0,0],[0,1,0],[0.25,1,0],[0.5,1,0],[0.75,1,0],[1,1,0],[0,0.25,0],[0,0.5,0],[0,0.75,0],[1,0.25,0],[1,0.5,0],[1,0.75,0]];outlineConnect=0;fontColor=#232F3E;fillColor=#ED7100;strokeColor=#ffffff;dashed=0;verticalLabelPosition=bottom;verticalAlign=top;align=center;html=1;fontSize=16;fontStyle=0;aspect=fixed;shape=mxgraph.aws4.resourceIcon;resIcon=mxgraph.aws4.lambda;labelBackgroundColor=default;" vertex="1" parent="1">
          <mxGeometry x="-1970" y="2610" width="78" height="78" as="geometry" />
        </mxCell>
      </root>
    </mxGraphModel>
  </diagram>
</mxfile>
